<svg xmlns="http://www.w3.org/2000/svg" xmlns:xlink="http://www.w3.org/1999/xlink" viewBox="0 0 337.94 343.5"><defs><style>.cls-1{isolation:isolate;}.cls-10,.cls-12,.cls-13,.cls-14,.cls-15,.cls-16,.cls-17,.cls-18,.cls-19,.cls-2,.cls-20,.cls-21,.cls-22,.cls-23,.cls-24,.cls-25,.cls-26,.cls-27,.cls-28,.cls-29,.cls-3,.cls-30,.cls-31,.cls-32,.cls-33,.cls-4,.cls-5,.cls-6,.cls-7,.cls-8,.cls-9{fill-rule:evenodd;}.cls-2{fill:url(#New_Gradient_Swatch_92);}.cls-3{fill:url(#New_Gradient_Swatch_91);}.cls-4{fill:url(#New_Gradient_Swatch_92-2);}.cls-5{fill:url(#New_Gradient_Swatch_91-2);}.cls-6{fill:url(#New_Gradient_Swatch_92-3);}.cls-7{fill:url(#New_Gradient_Swatch_91-3);}.cls-8{fill:url(#New_Gradient_Swatch_92-4);}.cls-9{fill:url(#New_Gradient_Swatch_91-4);}.cls-10,.cls-11,.cls-12,.cls-13,.cls-14,.cls-15,.cls-16,.cls-17,.cls-18,.cls-19,.cls-24,.cls-26,.cls-27{mix-blend-mode:multiply;}.cls-10{fill:url(#New_Gradient_Swatch_88);}.cls-11{fill:#b7805c;}.cls-11,.cls-12,.cls-32,.cls-33{opacity:0.5;}.cls-12{fill:url(#New_Gradient_Swatch_88-2);}.cls-13{fill:url(#New_Gradient_Swatch_88-3);}.cls-14{fill:url(#New_Gradient_Swatch_88-4);}.cls-15{fill:url(#New_Gradient_Swatch_88-5);}.cls-16{fill:url(#New_Gradient_Swatch_88-6);}.cls-17{fill:url(#New_Gradient_Swatch_88-7);}.cls-18{fill:url(#New_Gradient_Swatch_88-8);}.cls-19{fill:url(#New_Gradient_Swatch_88-9);}.cls-20,.cls-21,.cls-22,.cls-23,.cls-30,.cls-31,.cls-32,.cls-33{mix-blend-mode:screen;}.cls-20{fill:url(#New_Gradient_Swatch_90);}.cls-21{fill:url(#New_Gradient_Swatch_90-2);}.cls-22{fill:url(#New_Gradient_Swatch_90-3);}.cls-23{fill:url(#New_Gradient_Swatch_90-4);}.cls-24{fill:url(#radial-gradient);}.cls-25{fill:url(#linear-gradient);}.cls-26{fill:url(#radial-gradient-2);}.cls-27{fill:url(#radial-gradient-3);}.cls-28{fill:url(#linear-gradient-2);}.cls-29{fill:url(#linear-gradient-3);}.cls-30{fill:url(#radial-gradient-4);}.cls-31{fill:url(#radial-gradient-5);}.cls-32{fill:url(#radial-gradient-6);}.cls-33{fill:url(#radial-gradient-7);}</style><linearGradient id="New_Gradient_Swatch_92" x1="170.67" y1="88.47" x2="170.67" y2="3.74" gradientUnits="userSpaceOnUse"><stop offset="0" stop-color="#692705"/><stop offset="1" stop-color="#823b00"/></linearGradient><radialGradient id="New_Gradient_Swatch_91" cx="34.48" cy="-36.91" r="303.58" gradientUnits="userSpaceOnUse"><stop offset="0" stop-color="#f59547"/><stop offset="1" stop-color="#a14c1f"/></radialGradient><linearGradient id="New_Gradient_Swatch_92-2" x1="170.65" y1="171.99" x2="170.65" y2="87.47" xlink:href="#New_Gradient_Swatch_92"/><radialGradient id="New_Gradient_Swatch_91-2" cx="30.5" cy="22.5" r="327.27" xlink:href="#New_Gradient_Swatch_91"/><linearGradient id="New_Gradient_Swatch_92-3" x1="169.25" y1="255.37" x2="169.25" y2="170.82" xlink:href="#New_Gradient_Swatch_92"/><radialGradient id="New_Gradient_Swatch_91-3" cx="31.34" cy="134.99" r="301.26" xlink:href="#New_Gradient_Swatch_91"/><linearGradient id="New_Gradient_Swatch_92-4" x1="169.1" y1="343.5" x2="169.1" y2="253.59" xlink:href="#New_Gradient_Swatch_92"/><radialGradient id="New_Gradient_Swatch_91-4" cx="47.85" cy="209.39" r="306.29" xlink:href="#New_Gradient_Swatch_91"/><radialGradient id="New_Gradient_Swatch_88" cx="74.36" cy="-37.04" r="228.38" gradientUnits="userSpaceOnUse"><stop offset="0" stop-color="#cfa04d"/><stop offset="1" stop-color="#fff"/></radialGradient><radialGradient id="New_Gradient_Swatch_88-2" cx="318.67" cy="-43.2" r="123.98" xlink:href="#New_Gradient_Swatch_88"/><radialGradient id="New_Gradient_Swatch_88-3" cx="180.89" cy="50.18" r="231.57" xlink:href="#New_Gradient_Swatch_88"/><radialGradient id="New_Gradient_Swatch_88-4" cx="64.61" cy="58.55" r="220.85" xlink:href="#New_Gradient_Swatch_88"/><radialGradient id="New_Gradient_Swatch_88-5" cx="312.9" cy="67.94" r="154.1" xlink:href="#New_Gradient_Swatch_88"/><radialGradient id="New_Gradient_Swatch_88-6" cx="166.62" cy="214.69" r="118.07" xlink:href="#New_Gradient_Swatch_88"/><radialGradient id="New_Gradient_Swatch_88-7" cx="107.65" cy="99.44" r="316.22" xlink:href="#New_Gradient_Swatch_88"/><radialGradient id="New_Gradient_Swatch_88-8" cx="178.81" cy="209.81" r="253.6" xlink:href="#New_Gradient_Swatch_88"/><radialGradient id="New_Gradient_Swatch_88-9" cx="120.09" cy="383.17" r="203.14" xlink:href="#New_Gradient_Swatch_88"/><linearGradient id="New_Gradient_Swatch_90" x1="0.96" y1="35.46" x2="301.9" y2="35.46" gradientUnits="userSpaceOnUse"><stop offset="0" stop-color="#a48a7b"/><stop offset="1" stop-color="#945534"/></linearGradient><linearGradient id="New_Gradient_Swatch_90-2" x1="0" y1="116.83" x2="249.33" y2="116.83" xlink:href="#New_Gradient_Swatch_90"/><linearGradient id="New_Gradient_Swatch_90-3" x1="0.17" y1="203.06" x2="273.26" y2="203.06" xlink:href="#New_Gradient_Swatch_90"/><linearGradient id="New_Gradient_Swatch_90-4" x1="1.3" y1="287.73" x2="191.51" y2="287.73" xlink:href="#New_Gradient_Swatch_90"/><radialGradient id="radial-gradient" cx="172.73" cy="265.08" r="288.02" gradientUnits="userSpaceOnUse"><stop offset="0" stop-color="#a48a7b"/><stop offset="1" stop-color="#fff"/></radialGradient><linearGradient id="linear-gradient" x1="168.53" y1="325.18" x2="168.53" y2="20.5" gradientUnits="userSpaceOnUse"><stop offset="0" stop-color="#edd6b9"/><stop offset="1" stop-color="#d4b492"/></linearGradient><radialGradient id="radial-gradient-2" cx="31.15" cy="326.73" r="49.55" xlink:href="#radial-gradient"/><radialGradient id="radial-gradient-3" cx="318.42" cy="35.18" r="28.3" xlink:href="#radial-gradient"/><linearGradient id="linear-gradient-2" x1="37.18" y1="313.28" x2="44.62" y2="295.76" gradientUnits="userSpaceOnUse"><stop offset="0" stop-color="#bf9f7e"/><stop offset="1" stop-color="#edd6b9"/></linearGradient><linearGradient id="linear-gradient-3" x1="313.33" y1="34.85" x2="301.22" y2="46.95" xlink:href="#linear-gradient-2"/><radialGradient id="radial-gradient-4" cx="22.91" cy="349.11" r="83.75" gradientUnits="userSpaceOnUse"><stop offset="0"/><stop offset="1" stop-color="#a3805f"/></radialGradient><radialGradient id="radial-gradient-5" cx="327.99" cy="10.61" r="54.91" xlink:href="#radial-gradient-4"/><radialGradient id="radial-gradient-6" cx="167.72" cy="174.78" r="297.79" gradientUnits="userSpaceOnUse"><stop offset="0" stop-color="#ca9e67"/><stop offset="1"/></radialGradient><radialGradient id="radial-gradient-7" cx="165.13" cy="174.52" r="244.49" xlink:href="#radial-gradient-6"/></defs><g class="cls-1"><g id="Layer_2" data-name="Layer 2"><g id="Layer_1-2" data-name="Layer 1"><path class="cls-2" d="M6.4,5.39c8.3-2.19,249.85-3.06,325.41,3l4.78,4c1,5.85,0,64.87-2.77,74.75-81.74,2-242.07,1.57-323.14-.5l-4.79-4C3.14,65.06,4.63,11.3,6.4,5.39Z"/><path class="cls-3" d="M1.61,1.36c8.59-2.27,257.85.5,330.2,7.05,1,5.85,0,64.87-2.78,74.75-81.74,2-242.06,1.57-323.14-.51C2.62,75.55-.4,8.09,1.61,1.36Z"/><path class="cls-4" d="M5.21,88.65c79,.64,249.63-2,327.79-.92l4.91,4c.25,25.67-1.15,52.09-2.79,79.27C315.49,173.34,23.4,171,9.37,169l-4.9-4c-2.35-19.06-.44-67.3.74-76.27Z"/><path class="cls-5" d="M.31,84.61c81.13.67,252.68,2,332.69,3.12.26,25.67-1.14,52.09-2.78,79.27-19.63,2.3-311.73,0-325.75-2.08C2,150.06-1,94.34.31,84.61Z"/><path class="cls-6" d="M7.31,172.56C25,171.07,287,169.64,331,172.31l4.79,4c1.67,9.46,2.7,60.62,1.51,79-81.75-1.37-249.61-2-331.7,0l-4.79-4c-.54-18.26,5.3-71.57,6.55-78.78Z"/><path class="cls-7" d="M2.52,168.53c18.9-1.6,302.65.84,328.43,3.78,1.67,9.46,2.7,60.62,1.52,79-81.76-1.38-249.62-2-331.71,0-1.55-5.43.29-74.36,1.76-82.81Z"/><path class="cls-8" d="M10.67,258c19-1.81,283-5.55,319.11-4l4.79,4c1.81,27.26,2.22,54.53,2,81.8-133.37,5.16-207.5,4.76-330.2,0l-4.79-4c-.58-21,6.27-67,9.07-77.77Z"/><path class="cls-9" d="M5.89,253.94c20.28-1.93,307.47-1.85,323.89,0,1.81,27.27,2.22,54.54,2,81.81-130.34,4.65-185.32-.79-330.2,0-1.16-17.94,1.25-70.17,4.29-81.81Z"/><path class="cls-10" d="M61,55.25c7.41-1.89,16.09-4.11,25.43-6.79l.44-.13c8.76-2.5,18-5.14,27.19-7.07a128.42,128.42,0,0,1,20.71-2.8,67.62,67.62,0,0,1,19.77,1.79A67.62,67.62,0,0,1,176,50.37c6.43,4.54,11.5,9.86,13.56,14.77a9.51,9.51,0,0,1,.55,1.74c1,4.72-1.24,10.42-6,15.87-.44.51-.91,1-1.4,1.54l19.58,0c2.31-2.48,4.6-5,6.88-7.68,4.46-5.18,5.29-9.73,4.63-14.27s-4.42-9.33-12.09-14.56a118,118,0,0,0-66.63-20.69c-17.83-.09-34.4,4.06-52,8.08-31,7.08-52.59,16-80.78,17,.93,14.71,2.22,27.59,3.55,30.48,15.65.41,39.88.74,69.4,1-8-1.88-15.27-3.49-21.43-4.77C44.61,77,38,75.82,35.8,75.64a7.41,7.41,0,0,1-4.72-1.84,4.3,4.3,0,0,1-1.31-3,5.76,5.76,0,0,1,1-3.23c1.29-2,4-4.19,8.15-5.91C43.4,59.76,51.07,57.79,61,55.25Z"/><path class="cls-11" d="M126.84,52.92a60.62,60.62,0,0,1,7.69-1.4,44.92,44.92,0,0,1,7.07-.28,42.41,42.41,0,0,1,7,.83A16.75,16.75,0,0,1,153,53.68a30.44,30.44,0,0,1,7.55,5.72A20.75,20.75,0,0,1,163.3,63a21.62,21.62,0,0,1,1.95,4.08,13.2,13.2,0,0,1,.8,4.7,12.62,12.62,0,0,1-1,4.54,9.49,9.49,0,0,1-2.51,3.54,22.2,22.2,0,0,1-5.24,3.28,26.67,26.67,0,0,1-2.56,1L126.55,84c-.76-.23-1.52-.46-2.27-.72a55.66,55.66,0,0,1-9-3.88,13.44,13.44,0,0,1-4-3.34A12.33,12.33,0,0,1,109,71.58a8.35,8.35,0,0,1,0-4.24,13.24,13.24,0,0,1,2-4.27,23.86,23.86,0,0,1,3.83-4.39,20,20,0,0,1,4.59-3.09,39.08,39.08,0,0,1,7.47-2.67ZM121.66,62C114,69,120.6,74.67,129,78.07c8,3.21,14.64,4.15,22.93,2.49a20.55,20.55,0,0,0,9.23-4.16,7,7,0,0,0,2.06-5,12.06,12.06,0,0,0-2-6.21C157.35,58.81,151,56.3,144,56c-6.6-.26-17.17,1.38-22.29,6ZM2.34,52.17c28.19-1,49.77-9.87,80.78-17,17.56-4,34.13-8.17,52-8.08a118,118,0,0,1,66.63,20.69c7.67,5.23,11.42,9.94,12.09,14.56s-.17,9.09-4.63,14.27c-2.28,2.63-4.57,5.2-6.88,7.68l9.53,0q2.24-2.49,4.45-5.05c5.51-6.37,8.35-12.32,7.46-18.4-1.6-11-24.54-22.79-36.91-27.69-42-16.65-62.68-13.11-104.56-1.37C53.53,39.92,26.06,46.65,2,46.72l0,.69v.17l.05.85v.09l0,.5c0,.46.06.92.08,1.37v.26l.09,1.52Zm-1-21.77c33-.36,59-6.26,84-10.44,62.83-10.5,83.53-11.53,146.46,16.76,11.7,5.26,21,12,26.14,17.19,4.36,4.38,5,10.53.69,15.15-3.16,3.37-10.28,9.34-17.9,15.23l8.85-.05c7-5.18,13.22-10.1,16.15-13.23a14.48,14.48,0,0,0,3-4.77,13.8,13.8,0,0,0,.92-5.41,12.73,12.73,0,0,0-1.34-5,17.39,17.39,0,0,0-3.32-4.63c-5.75-5.79-17.07-12-29.81-17.77a436.13,436.13,0,0,0-51.57-19c-23.6-6.86-34.64-5.63-58.56-3.14-13.8,1.43-26.92,3.63-40.3,5.86C59.75,21.25,34,25.56,1.14,25.36v.78l0,.93v.63l0,.95v.79l0,.88v.08ZM1,11.3C31.24,10.46,60.76,5.22,90.44.86,82.67.78,75.21.72,68.14.67c-22.21,2.8-44.43,5-67,5.2v.36c0,.2,0,.4,0,.6v.32c0,.21,0,.42,0,.64v.33c0,.25,0,.51,0,.77H1v.36c0,.23,0,.48,0,.72v.37c0,.25,0,.5,0,.76v.2ZM189.78,2.51c25.52,9.22,54.9,23.36,76.57,31.64,7.2,2.75,22.74,8.26,35.3,14.93,27.9,14.81,18.46,22-7,33l-4,1.73q9.51-.12,18.31-.27c3.7-1.69,7.28-3.41,10.65-5.19,11.18-5.91,12.37-12.11,8.79-17.91-7.59-12.29-44.29-25.77-58.11-31-13.2-5-26.25-10.36-39.36-15.6-8.4-3.36-17.6-7.31-27.05-11l-14-.34Zm50.75,1.38c28,10,56.39,19.45,85,27.87,2.12.62,4.32,1.22,6.58,1.81,0-1.67.05-3.3.07-4.89-1.43-.38-2.83-.78-4.19-1.18-24-7.08-47.89-14.87-71.56-23.08-5.18-.19-10.48-.36-15.87-.53ZM328.7,8.14c1.06.23,2.11.44,3.16.64,0-.14,0-.26-.05-.37l-3.11-.27ZM38.91,61.62c-4.18,1.72-6.86,3.88-8.15,5.91a5.76,5.76,0,0,0-1,3.23,4.3,4.3,0,0,0,1.31,3,7.41,7.41,0,0,0,4.72,1.84c2.24.18,8.81,1.33,18.06,3.25,6.16,1.28,13.47,2.89,21.43,4.77l19.47.17c-2.37-.78-4.81-1.51-7.33-2.17-9.6-2.5-18.36-4.6-25.44-6.18C57.21,74.42,35.58,71,48.6,64.84c3.92-1.85,11-3.7,20.18-6.22,16.08-4.42,32.72-11.4,48.79-15a109.71,109.71,0,0,1,18.81-2.73,56.31,56.31,0,0,1,17.56,1.7c6.57,1.81,13.86,6.42,19.45,10.66,10.38,7.86,16.68,15.22,7,27.19a40.36,40.36,0,0,1-3.55,3.84l5.85,0c.49-.51,1-1,1.4-1.54,4.72-5.45,7-11.15,6-15.87a9.51,9.51,0,0,0-.55-1.74c-2.06-4.91-7.13-10.23-13.56-14.77a67.62,67.62,0,0,0-21.42-10.12,67.62,67.62,0,0,0-19.77-1.79,128.42,128.42,0,0,0-20.71,2.8c-9.23,1.93-18.43,4.57-27.19,7.07l-.44.13c-9.34,2.68-18,4.9-25.43,6.79-9.93,2.54-17.6,4.51-22.09,6.37Z"/><path class="cls-12" d="M331.86,8.78c-1.05-.2-2.1-.41-3.15-.64-17.16-1.43-42.8-2.68-72.31-3.72,23.67,8.21,47.53,16,71.56,23.08,1.36.4,2.76.8,4.19,1.18.1-9.67,0-17.43-.29-19.9Z"/><path class="cls-13" d="M250.85,157c-25.86-20.27-52.24-40.1-79.26-58.87-5.82-4.05-12.45-8.11-19.23-12.27l-81.92-.69,8.6,2C124,97.85,152.6,104.48,189.5,133.59c11.37,9,20.84,15.81,33.55,22.67,6.61,3.57,12.86,7.37,19,11.34l22.5.1c-4.32-3.31-8.87-6.85-13.75-10.68Z"/><path class="cls-14" d="M180.86,161.49C133.6,137,108.24,108.38,50.72,106.75,30.52,106.17,19.1,105.06,0,96c0,4.09.18,8.91.37,14.09,44,15.71,77,12,127.67,37.38,5.49,2.75,11,5.51,16.63,7.82,7.35,3,16.14,7.42,25.29,11.88l22.12.15-11.24-5.84Z"/><path class="cls-11" d="M331.32,148a120,120,0,0,1-31.75-29c-5.71-7.48-7.81-13.21-7-17.87s3.06-8.7,9-12.25L304,87.37l-13.23-.15c-4.55,3.51-7.42,7.41-8.24,12.08-2,11,16.33,29.76,26.66,38.44a189.67,189.67,0,0,0,21.76,16l.33-5.81Zm-1,17.53c-19.47-8.57-37.41-21.81-63.17-45.47-9.58-8.8-16.39-18.3-19.66-24.89a12,12,0,0,1-1.07-8.38l-8.33-.08a14.37,14.37,0,0,0,0,3.34,17.81,17.81,0,0,0,1.72,5.52c3.68,7.4,12.59,17,23,26.62a443.07,443.07,0,0,0,43.54,34.79,131.37,131.37,0,0,0,17.49,10.42c3-.1,5.16-.22,6.33-.36l.09-1.51Zm-31.87,2.32c-22.11-17.15-46.71-41-65.44-56.38-5.94-4.86-18.77-14.85-28.66-25.08l-8.76-.08c10.84,11.27,25.11,22.69,32.19,28.48,11.08,9.07,21.94,18.36,32.88,27.59,9.28,7.84,19.6,17.13,30.33,25.46l6,0Zm-26.51-.08c-6.26-5-12.81-10.35-20.26-16.19-24.92-19.53-50.33-38.62-76.36-56.7C171.1,91.91,166.43,89,161.57,86l-9.21-.08c6.78,4.16,13.41,8.22,19.23,12.27,27,18.77,53.4,38.6,79.26,58.87,4.88,3.83,9.43,7.37,13.75,10.68l7.33,0ZM51.54,85c8.75,1.78,17.73,3.51,26.66,5.62,44.43,10.5,72,19.22,108.45,48,11.51,9.08,21.16,16,34,23,3.61,2,7.09,3.92,10.48,5.9l10.94.06c-6.19-4-12.44-7.77-19-11.34-12.71-6.86-22.18-13.71-33.55-22.67C152.6,104.48,124,97.85,79,87.23l-8.6-2L51.54,85ZM0,96c19.08,9,30.5,10.16,50.7,10.74,57.52,1.63,82.88,30.21,130.14,54.74l11.24,5.84,13.15.07c-7.38-4-14.71-7.94-21.95-11.69-40-20.77-86.17-51.78-132-54.3C30.8,100.29,20,98.89,0,89.05H0c0,.18,0,.36,0,.55v.28H0c0,.23,0,.46,0,.69v.31c0,.23,0,.48,0,.72v.22H0V94c0,.28,0,.55,0,.83v.37c0,.24,0,.49,0,.73V96Zm.66,20.82c36.23,14.9,68.44,10.77,107.16,25.75,17,6.59,34.3,15.8,51.59,24.53l10.55.07c-9.15-4.46-17.94-8.89-25.29-11.88-5.65-2.31-11.14-5.07-16.63-7.82C77.43,122.05,44.37,125.81.39,110.1v.72l0,.52v.31l0,.52v.94l0,.63v1l0,.64v.32l0,.32v.21l0,.54v.11Zm1.11,19.91a163.6,163.6,0,0,0,34.12,7.72c41.83,4.81,58.06,12.86,81.39,22.31l16.21.14-3.59-1.23c-30.35-10.46-48.37-18.41-92.83-26.24A242.17,242.17,0,0,1,1.37,130v.43l.05.75v.74c0,.36.05.71.07,1.07v.53l.06,1v.74l.05.73v.84ZM3,151.86c14.15,4.11,28.8,8.28,43.71,12,3,.76,6.11,1.52,9.16,2.26,7.78.1,16.25.21,25.32.3C55,160,28.6,153.84,2.49,146.31v.09l0,.72v.17l0,.27v.18l.06.79v.18l0,.35v.17l0,.52v.19l0,.49v.26l0,.25v.34l0,.5v.08Zm1.45,12.68,2.13.55c3.42.19,10.44.39,20.36.58-7.76-2.08-15.49-4.22-23.2-6.47v.2c0,.22,0,.44.08.66v.28l.09.73v.27L4,162v.16l0,.09c0,.22,0,.43.08.64V163l0,.08c0,.23.06.46.1.68v.15l.09.56v.07Zm327.87-36.69c-1.34-1.71-2.6-3.43-3.73-5.08-7.48-10.88-11.18-20,1.93-28.41q1.22-.78,2.55-1.5c0-1.54,0-3.08,0-4.61a44.34,44.34,0,0,0-5.34,2.69c-6.29,3.74-10.3,8.5-10.82,13.37a10.4,10.4,0,0,0,0,1.85c.42,5.39,3.59,12.13,8.33,18.55a70.86,70.86,0,0,0,6.91,8l.21-4.88Z"/><path class="cls-15" d="M309.23,137.74c-10.33-8.68-28.62-27.39-26.66-38.44.82-4.67,3.69-8.57,8.24-12.08-13.81-.16-28.75-.31-44.4-.47a12,12,0,0,0,1.07,8.38c3.27,6.59,10.08,16.09,19.66,24.89,25.76,23.66,43.7,36.9,63.17,45.47q.35-5.88.68-11.72a189.67,189.67,0,0,1-21.76-16Z"/><path class="cls-11" d="M120.85,250.1c17.1-2.77,36.06-6.36,52-3.59a127.3,127.3,0,0,1,14.57,3.57H201.2c-9.54-3.21-19.08-5.7-28-6.53-19.35-1.81-42.21,2.24-61.65,5-4.07.56-8.13,1.13-12.2,1.68l21.49-.07Zm-73.1-6.53c-15.81,1-31.64,1.2-47.48,1.24,0,.21,0,.41,0,.61v.41c0,.18,0,.36,0,.53s0,.27,0,.39,0,.34,0,.5l0,.38c0,.13,0,.26,0,.39s0,.28,0,.42,0,.2,0,.29,0,.29,0,.42,0,.18,0,.27l0,.37,0,.2c0,.11,0,.22,0,.32a1.37,1.37,0,0,1,0,.19Zm272.15,6.65q-5.68-1.77-11.72-3.95c-13.19-4.78-24.05-8.19-37.84-10.62-35.58-6.28-62.14-17.57-100.46-18.69-24.48-.71-51.79,4-76.3,7.4-30.07,4.21-60,8.4-93.4,8.52V233h0v.09c0,.42,0,.83,0,1.24h0V238c33.65-.11,63.66-4.32,93.84-8.55,24.29-3.4,51.52-9.84,75.77-9.14,21.79.64,42.55,6.35,63.46,12.12,12.28,3.39,24,6.59,36.56,8.81a198.64,198.64,0,0,1,33,8.92l17.12.05ZM333,229c-8.33-1.92-17.05-3.77-26.42-5.26-37.76-6-79-12.61-114.48-15.73-23-2-47.5.77-70.34,3.72-9.49,1.23-19,2.62-28.54,4C63,220.14,33.6,224.41.26,224.13v3.62l0,.93v.46c33.6.29,63.16-4,93.44-8.4,30.07-4.36,69.07-11.89,98.17-9.33,35.33,3.11,76.56,12.34,114.27,18.36,8.65,1.38,17.65,3.06,26.87,4.78,0-1.78,0-3.62,0-5.51Zm-.11-15.54c-16.13-2.45-32.3-4.89-47.74-5.44-12.12-.44-24.25-1.26-36.38-2.79-8.51-1.07-15.78-2.11-22.5-3.06-20.09-2.86-35.23-5-54.88-4.4-20.71.65-41.25,3.4-61.72,6.14C73.51,208.79,36.82,214,.42,214.78v5.52c36.7-.86,74.92-7.54,109.73-13,20.34-3.2,40.73-6.23,61.29-6.88,38.24-1.2,70,11.54,113.57,12.15,15,.21,33.34,3.47,48,5.15,0-1.4,0-2.81-.05-4.21ZM332.55,199c-7.07,0-14.15.21-21.25.34-27.8.53-50.62-1.39-78.2-5-18.27-2.41-36.8-4.81-55.22-5-28.72-.35-59.71,4-88.33,7.28C60.3,199.84,31.76,203.07.68,204.4v6.27c58.22-2.76,124.44-18,177.33-17.38a464.49,464.49,0,0,1,54.85,4.32c27.74,3.66,50.44,7.61,78.4,7.08,7.22-.14,14.41-.19,21.6-.19-.05-1.88-.1-3.73-.15-5.54Zm-.4-11.07c-27.6.79-56.21-.16-87.25-4.9-22.39-3.43-45-6.33-67.17-6.33-35.09,0-72.71,3.81-107.87,7.53-22.75,2.4-45.14,4.77-68.68,5.44V190l0,.69v1l0,.6v1.11l0,.51v1l0,.73v.41c22.38.54,45.26-1.93,69.23-5.76C105,184.76,142.76,180,177.73,180c36.3,0,72.14,8.27,108.24,11.38a447.88,447.88,0,0,0,46.38,1.38c-.07-1.7-.13-3.34-.2-4.91Zm-.82-12.69c-5.73.08-11.42.1-17.12.05a558.53,558.53,0,0,1-76.72-5.6c-9.47-.15-19.3-.29-29.36-.42,5.56.78,11.48,1.76,18,3,36.73,7,71.67,8.68,105.65,8-.12-1.94-.26-3.65-.4-5.05ZM78.76,168.09C53.12,170.78,27.77,174.3,2,174v.06l0,.51v.51l0,.5v.1l0,.51v0c30.8-.52,58.81-2.24,88.53-4.95,10.49-.95,21.19-1.93,32.1-2.83l1.14-.09c-15.72-.12-30.87-.21-44.84-.27Z"/><path class="cls-16" d="M306.56,223.78c9.37,1.49,18.09,3.34,26.42,5.26,0-3.66,0-7.48-.06-11.33-14.67-1.68-33-4.94-48-5.15-43.58-.61-75.33-13.35-113.57-12.15-20.56.65-41,3.68-61.29,6.88-34.81,5.47-73,12.15-109.73,13l0,1.15v.18l0,1.37v1.13c33.34.28,62.78-4,92.94-8.36,9.49-1.38,19-2.77,28.54-4,22.84-3,47.36-5.74,70.34-3.72,35.44,3.12,76.72,9.7,114.48,15.73Z"/><path class="cls-17" d="M332.35,192.8A447.88,447.88,0,0,1,286,191.42C249.87,188.31,214,180,177.73,180c-35,0-72.74,4.72-107.56,10.28-24,3.83-46.85,6.3-69.23,5.76l0,.76v.39l0,1.41v.26l0,1.43v.13h0v.13l0,1.31v.52l0,1.23v.75c31.08-1.33,59.62-4.56,88.87-7.88,28.62-3.25,59.61-7.63,88.33-7.28,18.42.22,37,2.62,55.22,5,27.58,3.64,50.4,5.56,78.2,5,7.1-.13,14.18-.29,21.25-.34-.06-2.12-.13-4.18-.2-6.16Z"/><path class="cls-11" d="M181.5,336.61l.47-.43a51.82,51.82,0,0,1,6.7-5.28,20.64,20.64,0,0,1,5.19-2.42,37,37,0,0,1,11.44-1.58,26.18,26.18,0,0,1,5.5.74,27.47,27.47,0,0,1,5.19,1.83,16.29,16.29,0,0,1,4.74,3.36,15.63,15.63,0,0,1,2.82,4.17l-4.06,0a10.07,10.07,0,0,0-1.48-2c-1.83-1.92-4.62-3-7.12-3.59-8-2-15,.57-20.94,5.36l-8.45-.08Zm-39.3-.35A156.92,156.92,0,0,1,155.6,321a143.63,143.63,0,0,1,75.18-39.54c11.11-2.11,18.39-1.28,22.94,2.12s7.69,8,8.3,16.27a232,232,0,0,1,.19,37.42l6.84.05,1.53,0c1.21-13,.9-26.85-.15-41.27-.75-10.22-3.43-17.78-9.43-22.26-10.81-8.05-40.74,1.51-55.61,7.94-35.86,15.5-53.69,30.51-70.32,54.46l7.13.06Zm-19.95-.17c31.56-42.34,52.29-60.67,108.14-83.45l-12.41,0c-12.74,5.83-24.18,11.63-31.68,15.75-26.22,14.42-34.66,25-53.12,47.72-5.39,6.64-10.46,13.29-15.39,20l4.46,0Zm175.76-83c-.13,9.31-2.23,27.7-4.65,42.29-2.7,16.28-3.25,29.09-5.23,41.6l5-.11c2.32-12.56,3.81-26,6.38-41.5,2.27-13.68,5.16-31.1,6-42.17l-7.52-.11ZM95.26,335.9q2.83-3.81,5.7-7.61c14.63-19.36,30.05-44.59,49.61-58.36,8.38-5.91,19.24-11.71,31.31-17.36l-11.9,0A139.34,139.34,0,0,0,148.21,267c-18.77,15.56-35.46,39.43-50.3,59.08l-7.4,9.78,4.75,0ZM330,257.05c-1.06,2.85-2.08,5.68-3,8.48-7.39,21.93-9.07,47.21-14.3,70.84l5.24-.16c1.47-6,2.79-12.13,4.11-18.2,2.73-12.61,5.65-24.37,9.16-36.32q-.42-12.31-1.19-24.64ZM75.33,335.78c19.58-29.88,38.21-59.89,69.9-83.13h-6c-14.67,12.07-28.29,27.06-44.7,49-8.36,11.2-16.36,22.68-24.5,34.05l5.3,0Zm39.88-83C95.43,273,77.42,298.26,60.55,320.63c-3.79,5-7.57,10-11.39,15.06l8.05,0,8.25-10.93c17.59-23.31,35.1-51.4,55.75-72.06l-6,0Zm-15.4.06c-8.9,10.4-17.35,21.19-25.45,31.69C67,294,59.78,303.71,52.58,313.35c-5.58,7.48-11.14,14.92-16.77,22.32h7.86c4.6-6.08,9.15-12.17,13.72-18.3,14.65-19.62,31.41-43.67,49-64.6l-6.54,0Zm-15.44.08c-9.49,11.59-18.59,23.5-27.68,35.4-12,15.78-24.13,31.72-36.53,47.4h7.1c11.32-15.14,22.2-30.3,32.75-44.8,9.36-12.85,18.8-25.67,28.8-38l-4.44,0ZM69.44,253c-12.81,15.46-25.14,31.44-37.17,46.54C22.58,311.68,13,323.72,3.16,335.74h2.2l6.14,0c21.74-28.12,43.06-57.14,64.56-82.77l-6.62,0Zm-21.89.17c-15,17.54-29.62,35.51-43.69,52.91l-2.33,2.88v.22l0,1.12v.44l0,.88v.66l0,.9v.63l0,.84v2.68c0,.32,0,.64,0,1v.36c0,.34,0,.68,0,1v1.41ZM1.31,321.3c0,.38,0,.76,0,1.13h0c0-.37,0-.75,0-1.13Zm0,1.13q4.16-5.54,8.28-11.22c14-19.28,28.9-39.1,44.56-58.13l-6.59.06Zm21.41-69c-5.53,6.59-10.89,13-16.18,19.39l-3.41,4.11v.14l0,.41v.16l0,.67v.14L3,279v.14l0,.79,0,.48v.14l-.06.85,0,.53v.19l0,.71V283h0l0,.39-.06,1v.15l0,.4v.18l0,.73V286q4-4.77,8.08-9.63Q20.08,265,29.88,253.34l-7.17.1Zm222.72,83.74a57.33,57.33,0,0,0,.26-10.47c-.62-8.76-3.57-15.63-8.52-18.8a12,12,0,0,0-2-1c-6-2.45-14.95-2.66-24.39-1a75.83,75.83,0,0,0-45.71,25.2c-1.59,1.73-3.13,3.52-4.64,5.37l4.07,0q2-2.44,4-4.71a68.39,68.39,0,0,1,16.57-13.65c7.22-4.11,17.47-6.41,25.92-7.58,15.71-2.16,27.47-1.24,29.46,17.37a51.47,51.47,0,0,1,.11,9.25l4.81,0Z"/><path class="cls-18" d="M299.48,295.4c-2.57,15.49-4.06,28.94-6.38,41.5q9.51-.22,19.56-.53c5.23-23.63,6.91-48.91,14.3-70.84.94-2.8,2-5.63,3-8.48-.06-1-.13-2.07-.2-3.11-2.48-.28-11.21-.52-24.25-.71-.89,11.07-3.78,28.49-6,42.17Zm-166.3,20.67c18.46-22.74,26.9-33.3,53.12-47.72,7.5-4.12,18.94-9.92,31.68-15.75l-21.27,0-14.83,0C169.81,258.22,159,264,150.57,269.93c-19.56,13.77-35,39-49.61,58.36q-2.86,3.79-5.7,7.61,11.16.06,22.53.16c4.93-6.7,10-13.35,15.39-20Z"/><path class="cls-19" d="M240.51,327.89c-2-18.61-13.75-19.53-29.46-17.37-8.45,1.17-18.7,3.47-25.92,7.58a68.39,68.39,0,0,0-16.57,13.65q-2.07,2.26-4,4.71l17,.15.47-.43a51.82,51.82,0,0,1,6.7-5.28,20.64,20.64,0,0,1,5.19-2.42,37,37,0,0,1,11.44-1.58,26.18,26.18,0,0,1,5.5.74,27.47,27.47,0,0,1,5.19,1.83,16.29,16.29,0,0,1,4.74,3.36,15.63,15.63,0,0,1,2.82,4.17l17.07.14a51.47,51.47,0,0,0-.11-9.25Z"/><path class="cls-20" d="M5.25,6.77l.87,0c51.64-1.4,105.54,1.36,156.79.72,46.24-.58,92.48-.9,139-1.08C167,.58,7.17-1.69,1.61,1.36.81,4,.8,16.21,1.29,30.4h0l0,.91v0h0v.07c0,.39,0,.78,0,1.17v.15c.5,13.35,1.41,28.08,2.5,38.17,0-12.87.13-25.41.44-38,11.7.47,24-.59,37.73-3C55.21,27.58,68.25,24.63,81.35,22c12.78-2.61,24.84-4.9,37.41-7-9.92,1.19-20.86,2.91-33.5,5C61,24,35.93,29.67,4.37,30.35c.21-7.79.49-15.62.88-23.58Z"/><path class="cls-21" d="M8.3,84.68l-8-.07c-1,7.47.52,42.05,2.4,64.43.22-18.37.45-36.13,2-54.51q.24-2.93.53-5.88l0-.3c31,0,62,.22,93,.29,22.53,0,45.06,0,67.59-.26l8.22-.11c25-.36,50.3-.3,75.28-1.49C152.5,86.24,54,85,8.3,84.68Z"/><path class="cls-22" d="M.18,238.28C1,230.45,1.91,222.21,2.8,214c.73-6.79,1.42-13.57,2-20.14.5-6,.86-11.9,1-17.4a11.61,11.61,0,0,0-1.26-5.55c11.47.09,22.93.27,34.4.26,34.9,0,69.92.11,105,0l16.5-.06,10.48-.06c34.23-.22,68.33.56,102.43-.76-113-1.93-235.11-3.17-264.67-2-3,.07-5.1.14-6.07.22C1.4,175,.07,216.45.18,238.28Z"/><path class="cls-23" d="M3.77,295.7c2-16.52,4.17-23.68,3.55-40.37,0-.15,0-.3,0-.45q3.73.17,7.47.3c45.76,1.66,91.14.68,136.66-1q20-.75,40.08-1.62c-94.23.11-177.08.57-185.62,1.38-.11.43-.22.9-.33,1.43C3.23,266.68,1.34,301.06,1.3,322.9c.74-9.07,1.39-18.16,2.47-27.2Z"/><path class="cls-24" d="M64.83,332.24c90.54-2.31,166-3.72,247.81.37,1.87.09,4.34.31,5.71-1s1.26-3.7,1.28-5.58c.1-6.18.46-13.26.21-18.2l-18.11-1.61L319.55,302q-2.49-50.59-3.42-101.77l-9.66-3.36L316,193.7c-.75-48.52,2.78-93.84,4.5-142.22a172.43,172.43,0,0,0-16.88-31.81,5.93,5.93,0,0,0-5.38-3C262.08,19.9,90.1,23.47,24.88,20.21c-3.54-.17-6.38,3-6.47,6.51C18.07,41,19.63,50.21,20.12,63.78l7,4.43L24,72.37l.58,3.19-4,2.78q2.26,75.75-.46,150.91L25.43,232l-2.65,4.87,7.49,3.8L19.58,243.4c-.84,20.06-3.93,40.3-4.07,59.84,10.81,11.37,32.41,23.43,49.32,29Z"/><path class="cls-25" d="M65.11,323.42c13.47,3.25,209.34,1.64,261.15-1.94q-.61-9.92-1.15-19.88l-18.55-1.54,18.25-4q-2.55-48.26-3.51-97.06l-9.89-3.2,9.78-3c-.77-46.28-.37-92.7,1.39-138.85L299,20.88c-3.24-1.38-233.21,1.25-286.29,3.23q1.35,22.38,2.22,44.71l7.18,4.24-3.23,4,.59,3-4,2.64q2.31,72.25-.48,143.93l5.42,2.63-2.71,4.64,7.67,3.63-10.94,2.59Q13,269.88,10.81,299.51v0l54.3,23.87Z"/><path class="cls-26" d="M65.09,323.41,10.78,299.53c1.69-2.6,18.62-16,20.93-16.22s27.75,35.18,33.38,40.1Z"/><path class="cls-27" d="M322.58,53.89c-5.43-2.59-28.58-6.36-29.66-8.73-.84-1.86,4.85-17.74,6.08-24.28l23.58,33Z"/><path class="cls-28" d="M28.48,288.91c11.42,11.79,24.74,24.86,36.63,34.51-4,0-54.33-19.94-54.33-23.89a100.39,100.39,0,0,1,17.7-10.62Z"/><path class="cls-29" d="M322.58,53.89C313.29,49.72,304,45.63,295,40.74a189.65,189.65,0,0,0,4-19.86c2.3,0,23.58,30.55,23.58,33Z"/><path class="cls-30" d="M53.78,318.44c-3.12-11.3-27.46-25.11-35.68-23.9a94.39,94.39,0,0,1,10.38-5.63C39.87,300.67,53.15,313.7,65,323.35l.09.07c-1,0-5.32-1.38-11-3.49a8.9,8.9,0,0,0-.29-1.49Z"/><path class="cls-31" d="M298.69,38.52c2.73,6.3,14.65,10.76,21.88,12.55l.81.2a8.88,8.88,0,0,1,1.2,2.62c-.22-.11-.48-.22-.76-.34-9-4.06-18.11-8-26.81-12.81a189.65,189.65,0,0,0,4-19.86,1.3,1.3,0,0,1,.63.33c0,.12-.08.25-.13.37-1.48,4.49-2.67,12.65-.81,16.94Z"/><path class="cls-32" d="M71.57,317.33c-6.29-2.91-8.8-8-12.26-16.33-9.89-23.81-22.82-19.53-33.18-26-6.91-4.34-9.08-17.43,3.71-35,11.8-16.25-9.63-34.22-8.87-68.23.48-21.78,12.15-56.19,14.06-66.33C36.8,96,39,91,30.12,77.65c-3.43-5.15.43-7.54-8-20.61-4.4-6.85-3-11.7,1.31-15.22,13.47-11,38.14-13.9,62.39-11,68,8.12,72.13,13,129.78,1.87,15.2-2.94,20.64-2.1,30.47-3.24,7.58-.87,15.51-2.12,22.08-.16,13.58,4.07,7.17,17.56,18.88,25.83C303.91,67,322.25,50.4,313.9,85c-4.19,17.4-9.13,37.62-1.22,59.17,2.28,6.22,2.24,21.91-.33,27.65-10.28,22.92-19.78,19.36-6.14,32.45,11.13,10.68-4.53,19.46,3.49,31.42,7.76,11.57,4.07,22.83-4.54,46.48-1.17,3.21,4.63,7.15-6.17,13.45-7.53,4.39,19.16,17-41.16,17-17.12,0-22.39,6.31-39.68,5.79-15.14-.45-25.69.33-37.55,1.09-21.66,1.39-43.56-3.71-46.69-3.61-24.87.84-42.11,10.79-62.34,1.42Z"/><path class="cls-33" d="M44.83,272c-8.3-7.48-12.28-13.18-6.57-34,8.5-30.94-8.14-38.77-10-58-2.34-24.71-.4-12.62,8.5-30.06,5.49-10.77-9.19-14.13,7.86-34.36,12.69-15,9.63-27.3-1.94-41.09C33.35,63.33,32.27,48,42.31,40.64,58,29.08,75.9,42.14,88.19,42.89c3.69.22,8.42-.66,16.19-3.66,8.85-3.43,31.45,6.17,48.65,9.26,19.65,3.52,36.67,3.15,62.18-10.2,22.27-11.66,53.24,4.26,59.51,15.92,1.71,3.18,13.46.47,15.55,18.62.91,7.91,20.56,13,8.93,34.32-2.13,3.91-3.61,26.51.2,33.27,4.37,7.75,4.35,25.11-.2,31.83-12.89,19,5.53,34.64-3.94,48.47-9.6,14-1.39,25.17-1.39,35.86,0,22.47-8,8.83-3.51,30.76,3.9,19.13-11.89,21.75-28.52,17.91-11.08-2.55-27,7-43.95,7.89-20.5,1-25.1-9.08-42.55-5.93-26.62,4.81-36.69-10.66-55.2,1.43-14.19,9.28-27.9,7-34.11.69-7.92-8,1.32,2-10.94-14.84-11.84-16.28-26-18.68-30.26-22.48Z"/></g></g></g></svg>