<svg xmlns="http://www.w3.org/2000/svg" xmlns:xlink="http://www.w3.org/1999/xlink" viewBox="0 0 1921.35 4835.61"><defs><style>.cls-1{isolation:isolate;}.cls-2{fill:#ffc457;}.cls-3{fill:url(#Áåçûìÿííûé_ãðàäèåíò_86);}.cls-4{fill:#ed955d;}.cls-5{fill:#772a1c;}.cls-15,.cls-6,.cls-8{fill:#61222a;}.cls-11,.cls-6{opacity:0.19;}.cls-10,.cls-11,.cls-13,.cls-6,.cls-8{mix-blend-mode:multiply;}.cls-7{fill:#fff23d;}.cls-8{opacity:0.1;}.cls-12,.cls-16,.cls-17,.cls-9{fill:#edc983;mix-blend-mode:soft-light;}.cls-9{opacity:0.42;}.cls-10{fill:#d69268;}.cls-10,.cls-16{opacity:0.5;}.cls-11,.cls-13{fill:#895a60;}.cls-12{opacity:0.27;}.cls-13{opacity:0.2;}.cls-14{fill:#954b38;}.cls-17{opacity:0.3;}</style><linearGradient id="Áåçûìÿííûé_ãðàäèåíò_86" y1="981.92" x2="1920" y2="981.92" gradientUnits="userSpaceOnUse"><stop offset="0" stop-color="#bd5739"/><stop offset="1" stop-color="#9d3e23"/></linearGradient></defs><g class="cls-1"><g id="Layer_2" data-name="Layer 2"><g id="Layer_1-2" data-name="Layer 1"><polygon class="cls-2" points="1919.2 13.71 0 49.19 0 104.44 1919.2 104.44 1919.2 13.71"/><polygon class="cls-3" points="0 290.52 0 1813.99 1920 1797.61 1919.2 149.85 0 290.52"/><path class="cls-4" d="M0,104.44V290.52s1117-17.94,1347.28-17.94,571.92,51.81,571.92,51.81V104.44Z"/><polygon class="cls-5" points="0 586.27 1.35 4835.61 1921.35 4791.5 1918.35 959.64 0 586.27"/><polygon class="cls-6" points="1919.37 1967.99 0 2443.76 1.35 4835.61 1921.35 4791.5 1919.37 1967.99"/><polygon class="cls-7" points="1919.2 13.71 0 49.19 0 0 1918.35 0 1919.2 13.71"/><polygon class="cls-6" points="79.19 104.44 97.88 288.97 0 290.52 0 104.44 79.19 104.44"/><polygon class="cls-6" points="224.55 104.44 224.55 290.52 513.4 282.63 513.4 104.44 224.55 104.44"/><polygon class="cls-6" points="525.86 104.44 532.59 282.35 545.71 282.15 535.64 104.44 525.86 104.44"/><polygon class="cls-8" points="679.4 104.44 673.16 280.31 768.7 276.97 785.59 104.44 679.4 104.44"/><polygon class="cls-6" points="797.43 104.44 785.59 276.97 820.46 276.87 820.46 104.44 797.43 104.44"/><polygon class="cls-8" points="959.6 104.44 959.17 276.37 1166.88 273.91 1166.88 104.44 959.6 104.44"/><polygon class="cls-6" points="1177.43 104.44 1177.43 273.8 1187.99 273.69 1193.74 104.44 1177.43 104.44"/><polygon class="cls-6" points="1304.99 104.44 1287.36 272.82 1319.14 272.64 1358.79 104.44 1304.99 104.44"/><polygon class="cls-6" points="1467.69 104.44 1479.02 276.97 1502.73 276.1 1492.18 104.44 1467.69 104.44"/><polygon class="cls-8" points="1566.07 104.44 1562.51 282.94 1691.45 295.36 1691.45 104.44 1566.07 104.44"/><polygon class="cls-6" points="1707.13 104.44 1701.3 296.44 1714.91 296.44 1714.91 104.44 1707.13 104.44"/><polygon class="cls-6" points="1781.97 104.44 1781.97 305.61 1919.2 324.39 1919.2 104.44 1781.97 104.44"/><polygon class="cls-9" points="319.79 149.85 1026.77 149.85 1026.77 280.31 319.79 285.54 319.79 149.85"/><polygon class="cls-9" points="1273.07 104.44 1273.07 188.63 1865.26 214.41 1885.93 104.44 1273.07 104.44"/><ellipse class="cls-6" cx="278.28" cy="164.91" rx="12.95" ry="5.64"/><ellipse class="cls-6" cx="1736.71" cy="217.7" rx="12.95" ry="5.64"/><ellipse class="cls-6" cx="624.22" cy="214.41" rx="12.95" ry="5.64"/><ellipse class="cls-6" cx="1485.21" cy="200.44" rx="12.95" ry="5.64"/><ellipse class="cls-6" cx="1602.01" cy="200.44" rx="12.95" ry="5.64"/><ellipse class="cls-6" cx="998.94" cy="159.43" rx="12.95" ry="5.64"/><ellipse class="cls-6" cx="1323.07" cy="234.45" rx="12.95" ry="5.64"/><ellipse class="cls-6" cx="371.6" cy="206.02" rx="6.48" ry="2.82"/><ellipse class="cls-6" cx="66.24" cy="173.37" rx="6.48" ry="2.82"/><ellipse class="cls-6" cx="905.86" cy="237.27" rx="6.48" ry="2.82"/><ellipse class="cls-6" cx="1149.92" cy="164.91" rx="6.48" ry="2.82"/><ellipse class="cls-6" cx="1614.97" cy="228.97" rx="6.48" ry="2.82"/><ellipse class="cls-6" cx="1865.26" cy="242.9" rx="6.48" ry="2.82"/><ellipse class="cls-6" cx="1053.91" cy="226.15" rx="6.48" ry="2.82"/><path class="cls-6" d="M1850.59,147c0,1.55-2.9,2.81-6.48,2.81s-6.48-1.26-6.48-2.81,2.9-2.82,6.48-2.82S1850.59,145.48,1850.59,147Z"/><ellipse class="cls-6" cx="1193.74" cy="170.55" rx="6.48" ry="2.82"/><ellipse class="cls-6" cx="655.17" cy="223.33" rx="6.48" ry="2.82"/><ellipse class="cls-6" cx="37.74" cy="240.09" rx="6.48" ry="2.82"/><ellipse class="cls-6" cx="72.72" cy="242.9" rx="6.48" ry="2.82"/><ellipse class="cls-6" cx="185.61" cy="219.13" rx="9.67" ry="4.21"/><polygon class="cls-10" points="157.37 46.28 163.77 86.78 1239.8 85.17 1255.16 25.98 1262.35 25.98 1245.08 86.78 1602.01 86.78 1614.97 19.33 1744.55 16.93 1753.67 86.78 1871.74 86.78 1878.89 16.93 1919.2 13.71 1919.2 104.44 0 104.44 0 49.19 157.37 46.28"/><polygon class="cls-11" points="0 476.34 707.15 511.43 707.15 779.63 0 842.5 0 476.34"/><polygon class="cls-11" points="1919.2 1269.45 1039.49 1339.85 1039.49 1536.01 1919.2 1560.57 1919.2 1269.45"/><polygon class="cls-11" points="0.9 1718.7 880.6 1789.1 880.6 1985.26 0.9 2009.82 0.9 1718.7"/><polygon class="cls-12" points="959.17 450.8 982.49 868.04 1749.67 855.91 1781.97 482.08 959.17 450.8"/><polygon class="cls-12" points="0 939.86 1920 993.12 1918.35 1040.91 0 1122.52 0 939.86"/><polygon class="cls-11" points="1919.77 404.9 0.23 336.48 0.23 441.19 1919.43 431.32 1919.77 404.9"/><ellipse class="cls-6" cx="286.13" cy="421.71" rx="12.95" ry="8.99"/><ellipse class="cls-6" cx="1744.56" cy="505.83" rx="12.95" ry="8.99"/><path class="cls-6" d="M645,500.6c0,5-5.8,9-12.95,9s-13-4-13-9,5.8-9,13-9S645,495.64,645,500.6Z"/><ellipse class="cls-6" cx="785.59" cy="919.55" rx="12.95" ry="8.99"/><ellipse class="cls-6" cx="1493.06" cy="478.33" rx="12.95" ry="8.99"/><path class="cls-6" d="M850.13,1456c0,5-5.8,9-13,9s-12.95-4-12.95-9,5.8-9,12.95-9S850.13,1451,850.13,1456Z"/><ellipse class="cls-6" cx="1765.17" cy="1275.59" rx="12.95" ry="8.99"/><ellipse class="cls-6" cx="707.15" cy="1625.71" rx="12.95" ry="8.99"/><ellipse class="cls-6" cx="1609.86" cy="478.33" rx="12.95" ry="8.99"/><ellipse class="cls-6" cx="1006.79" cy="412.98" rx="12.95" ry="8.99"/><ellipse class="cls-6" cx="1330.92" cy="532.53" rx="12.95" ry="8.99"/><ellipse class="cls-6" cx="1330.92" cy="1238.88" rx="12.95" ry="8.99"/><path class="cls-6" d="M1234,1430.55c0,5-5.8,9-13,9s-13-4-13-9,5.8-9,13-9S1234,1425.59,1234,1430.55Z"/><ellipse class="cls-6" cx="1399.73" cy="1684.79" rx="12.95" ry="8.99"/><ellipse class="cls-6" cx="1259.07" cy="987.34" rx="12.95" ry="8.99"/><ellipse class="cls-6" cx="1107.02" cy="1675.8" rx="12.95" ry="8.99"/><ellipse class="cls-6" cx="379.45" cy="487.22" rx="6.48" ry="4.49"/><ellipse class="cls-6" cx="590.73" cy="799.49" rx="6.48" ry="4.49"/><ellipse class="cls-6" cx="504.36" cy="1050.67" rx="6.48" ry="4.49"/><ellipse class="cls-6" cx="193.28" cy="1247.86" rx="6.48" ry="4.49"/><path class="cls-6" d="M80.57,435.19c0,2.48-2.9,4.49-6.48,4.49s-6.48-2-6.48-4.49,2.9-4.49,6.48-4.49S80.57,432.71,80.57,435.19Z"/><ellipse class="cls-6" cx="913.71" cy="537.02" rx="6.48" ry="4.49"/><ellipse class="cls-6" cx="1697.56" cy="1208.8" rx="6.48" ry="4.49"/><ellipse class="cls-6" cx="1479.58" cy="1502.2" rx="6.48" ry="4.49"/><ellipse class="cls-6" cx="1589.06" cy="1275.59" rx="6.48" ry="4.49"/><path class="cls-6" d="M408.38,1163.2c0,2.49-2.9,4.5-6.47,4.5s-6.48-2-6.48-4.5,2.9-4.49,6.48-4.49S408.38,1160.72,408.38,1163.2Z"/><ellipse class="cls-6" cx="365.13" cy="550.5" rx="6.48" ry="4.49"/><ellipse class="cls-6" cx="569.54" cy="1518.54" rx="6.48" ry="4.49"/><ellipse class="cls-6" cx="1157.77" cy="421.71" rx="6.48" ry="4.49"/><ellipse class="cls-6" cx="1087.59" cy="739.21" rx="6.48" ry="4.49"/><ellipse class="cls-6" cx="1622.82" cy="523.8" rx="6.48" ry="4.49"/><ellipse class="cls-6" cx="423.06" cy="879.96" rx="6.48" ry="4.49"/><ellipse class="cls-6" cx="1515.2" cy="857.16" rx="6.48" ry="4.49"/><path class="cls-6" d="M1818.27,1158.71c0,2.48-2.9,4.49-6.47,4.49s-6.48-2-6.48-4.49,2.9-4.49,6.48-4.49S1818.27,1156.23,1818.27,1158.71Z"/><ellipse class="cls-6" cx="1873.11" cy="546.01" rx="6.48" ry="4.49"/><ellipse class="cls-6" cx="1541.62" cy="659.42" rx="6.48" ry="4.49"/><ellipse class="cls-6" cx="1061.76" cy="519.31" rx="6.48" ry="4.49"/><ellipse class="cls-6" cx="1498.03" cy="996.32" rx="6.48" ry="4.49"/><ellipse class="cls-6" cx="1851.96" cy="393.23" rx="6.48" ry="4.49"/><ellipse class="cls-6" cx="1201.59" cy="430.7" rx="6.48" ry="4.49"/><ellipse class="cls-6" cx="1005.15" cy="891.64" rx="6.48" ry="4.49"/><ellipse class="cls-6" cx="576.02" cy="1301.89" rx="6.48" ry="4.49"/><ellipse class="cls-6" cx="663.02" cy="514.82" rx="6.48" ry="4.49"/><ellipse class="cls-6" cx="644.83" cy="1197.34" rx="6.48" ry="4.49"/><ellipse class="cls-6" cx="125.56" cy="1284.57" rx="6.48" ry="4.49"/><ellipse class="cls-6" cx="707.15" cy="1447.32" rx="6.48" ry="4.49"/><ellipse class="cls-6" cx="45.59" cy="541.51" rx="6.48" ry="4.49"/><ellipse class="cls-6" cx="80.57" cy="546.01" rx="6.48" ry="4.49"/><ellipse class="cls-6" cx="748.84" cy="858.61" rx="6.48" ry="4.49"/><ellipse class="cls-6" cx="1252.6" cy="795" rx="6.48" ry="4.49"/><path class="cls-6" d="M203.13,508.11c0,3.71-4.33,6.71-9.67,6.71s-9.67-3-9.67-6.71,4.33-6.7,9.67-6.7S203.13,504.41,203.13,508.11Z"/><ellipse class="cls-6" cx="286.13" cy="1873" rx="12.95" ry="8.99"/><ellipse class="cls-6" cx="1744.56" cy="1957.11" rx="12.95" ry="8.99"/><path class="cls-6" d="M645,1951.89c0,5-5.8,9-12.95,9s-13-4-13-9,5.8-9,13-9S645,1946.92,645,1951.89Z"/><ellipse class="cls-6" cx="785.59" cy="2370.83" rx="12.95" ry="8.99"/><ellipse class="cls-6" cx="1493.06" cy="1929.61" rx="12.95" ry="8.99"/><path class="cls-6" d="M850.13,2907.23c0,5-5.8,9-13,9s-12.95-4-12.95-9,5.8-9,12.95-9S850.13,2902.27,850.13,2907.23Z"/><ellipse class="cls-6" cx="1765.17" cy="2726.87" rx="12.95" ry="8.99"/><ellipse class="cls-6" cx="707.15" cy="3076.99" rx="12.95" ry="8.99"/><ellipse class="cls-6" cx="1609.86" cy="1929.61" rx="12.95" ry="8.99"/><ellipse class="cls-6" cx="1006.79" cy="1864.26" rx="12.95" ry="8.99"/><ellipse class="cls-6" cx="1330.92" cy="1983.81" rx="12.95" ry="8.99"/><ellipse class="cls-6" cx="1330.92" cy="2690.16" rx="12.95" ry="8.99"/><path class="cls-6" d="M1234,2881.83c0,5-5.8,9-13,9s-13-4-13-9,5.8-9,13-9S1234,2876.87,1234,2881.83Z"/><ellipse class="cls-6" cx="1399.73" cy="3136.07" rx="12.95" ry="8.99"/><ellipse class="cls-6" cx="1259.07" cy="2438.62" rx="12.95" ry="8.99"/><ellipse class="cls-6" cx="1107.02" cy="3127.08" rx="12.95" ry="8.99"/><ellipse class="cls-6" cx="379.45" cy="1938.51" rx="6.48" ry="4.49"/><ellipse class="cls-6" cx="590.73" cy="2250.78" rx="6.48" ry="4.49"/><ellipse class="cls-6" cx="504.36" cy="2501.95" rx="6.48" ry="4.49"/><ellipse class="cls-6" cx="193.28" cy="2699.14" rx="6.48" ry="4.49"/><path class="cls-6" d="M80.57,1886.47c0,2.49-2.9,4.5-6.48,4.5s-6.48-2-6.48-4.5,2.9-4.49,6.48-4.49S80.57,1884,80.57,1886.47Z"/><ellipse class="cls-6" cx="913.71" cy="1988.3" rx="6.48" ry="4.49"/><ellipse class="cls-6" cx="1697.56" cy="2660.08" rx="6.48" ry="4.49"/><ellipse class="cls-6" cx="1479.58" cy="2953.48" rx="6.48" ry="4.49"/><ellipse class="cls-6" cx="1589.06" cy="2726.87" rx="6.48" ry="4.49"/><path class="cls-6" d="M408.38,2614.49c0,2.48-2.9,4.49-6.47,4.49s-6.48-2-6.48-4.49,2.9-4.5,6.48-4.5S408.38,2612,408.38,2614.49Z"/><ellipse class="cls-6" cx="365.13" cy="2001.78" rx="6.48" ry="4.49"/><ellipse class="cls-6" cx="569.54" cy="2969.83" rx="6.48" ry="4.49"/><ellipse class="cls-6" cx="1157.77" cy="1873" rx="6.48" ry="4.49"/><ellipse class="cls-6" cx="1087.59" cy="2190.5" rx="6.48" ry="4.49"/><ellipse class="cls-6" cx="1622.82" cy="1975.09" rx="6.48" ry="4.49"/><ellipse class="cls-6" cx="423.06" cy="2331.24" rx="6.48" ry="4.49"/><ellipse class="cls-6" cx="1515.2" cy="2308.44" rx="6.48" ry="4.49"/><path class="cls-6" d="M1818.27,2610c0,2.49-2.9,4.5-6.47,4.5s-6.48-2-6.48-4.5,2.9-4.49,6.48-4.49S1818.27,2607.51,1818.27,2610Z"/><ellipse class="cls-6" cx="1873.11" cy="1997.29" rx="6.48" ry="4.49"/><ellipse class="cls-6" cx="1541.62" cy="2110.7" rx="6.48" ry="4.49"/><ellipse class="cls-6" cx="1061.76" cy="1970.59" rx="6.48" ry="4.49"/><ellipse class="cls-6" cx="1498.03" cy="2447.6" rx="6.48" ry="4.49"/><ellipse class="cls-6" cx="1851.96" cy="1844.51" rx="6.48" ry="4.49"/><ellipse class="cls-6" cx="1201.59" cy="1881.98" rx="6.48" ry="4.49"/><ellipse class="cls-6" cx="1005.15" cy="2342.92" rx="6.48" ry="4.49"/><ellipse class="cls-6" cx="576.02" cy="2753.17" rx="6.48" ry="4.49"/><ellipse class="cls-6" cx="663.02" cy="1966.1" rx="6.48" ry="4.49"/><ellipse class="cls-6" cx="644.83" cy="2648.63" rx="6.48" ry="4.49"/><ellipse class="cls-6" cx="125.56" cy="2735.86" rx="6.48" ry="4.49"/><ellipse class="cls-6" cx="707.15" cy="2898.6" rx="6.48" ry="4.49"/><ellipse class="cls-6" cx="45.59" cy="1992.8" rx="6.48" ry="4.49"/><ellipse class="cls-6" cx="80.57" cy="1997.29" rx="6.48" ry="4.49"/><ellipse class="cls-6" cx="748.84" cy="2309.89" rx="6.48" ry="4.49"/><ellipse class="cls-6" cx="1252.6" cy="2246.28" rx="6.48" ry="4.49"/><path class="cls-6" d="M203.13,1959.4c0,3.7-4.33,6.7-9.67,6.7s-9.67-3-9.67-6.7,4.33-6.71,9.67-6.71S203.13,1955.69,203.13,1959.4Z"/><ellipse class="cls-6" cx="286.13" cy="3908.46" rx="12.95" ry="8.99"/><ellipse class="cls-6" cx="1744.56" cy="3992.58" rx="12.95" ry="8.99"/><path class="cls-6" d="M645,3987.35c0,5-5.8,9-12.95,9s-13-4-13-9,5.8-9,13-9S645,3982.39,645,3987.35Z"/><ellipse class="cls-6" cx="785.59" cy="4406.29" rx="12.95" ry="8.99"/><ellipse class="cls-6" cx="1493.06" cy="3965.08" rx="12.95" ry="8.99"/><ellipse class="cls-6" cx="1765.17" cy="4762.33" rx="12.95" ry="8.99"/><ellipse class="cls-6" cx="1609.86" cy="3965.08" rx="12.95" ry="8.99"/><ellipse class="cls-6" cx="1006.79" cy="3899.72" rx="12.95" ry="8.99"/><ellipse class="cls-6" cx="1330.92" cy="4019.27" rx="12.95" ry="8.99"/><ellipse class="cls-6" cx="1330.92" cy="4725.62" rx="12.95" ry="8.99"/><ellipse class="cls-6" cx="1259.07" cy="4474.08" rx="12.95" ry="8.99"/><ellipse class="cls-6" cx="379.45" cy="3973.97" rx="6.48" ry="4.49"/><ellipse class="cls-6" cx="590.73" cy="4286.24" rx="6.48" ry="4.49"/><ellipse class="cls-6" cx="504.36" cy="4537.41" rx="6.48" ry="4.49"/><ellipse class="cls-6" cx="193.28" cy="4734.61" rx="6.48" ry="4.49"/><path class="cls-6" d="M80.57,3921.94c0,2.48-2.9,4.49-6.48,4.49s-6.48-2-6.48-4.49,2.9-4.5,6.48-4.5S80.57,3919.45,80.57,3921.94Z"/><ellipse class="cls-6" cx="913.71" cy="4023.76" rx="6.48" ry="4.49"/><ellipse class="cls-6" cx="1697.56" cy="4695.54" rx="6.48" ry="4.49"/><ellipse class="cls-6" cx="1589.06" cy="4762.33" rx="6.48" ry="4.49"/><path class="cls-6" d="M408.38,4650c0,2.48-2.9,4.49-6.47,4.49s-6.48-2-6.48-4.49,2.9-4.49,6.48-4.49S408.38,4647.47,408.38,4650Z"/><ellipse class="cls-6" cx="365.13" cy="4037.24" rx="6.48" ry="4.49"/><ellipse class="cls-6" cx="1157.77" cy="3908.46" rx="6.48" ry="4.49"/><ellipse class="cls-6" cx="1087.59" cy="4225.96" rx="6.48" ry="4.49"/><ellipse class="cls-6" cx="1622.82" cy="4010.55" rx="6.48" ry="4.49"/><ellipse class="cls-6" cx="423.06" cy="4366.7" rx="6.48" ry="4.49"/><ellipse class="cls-6" cx="1515.2" cy="4343.9" rx="6.48" ry="4.49"/><path class="cls-6" d="M1818.27,4645.46c0,2.48-2.9,4.49-6.47,4.49s-6.48-2-6.48-4.49,2.9-4.5,6.48-4.5S1818.27,4643,1818.27,4645.46Z"/><ellipse class="cls-6" cx="1873.11" cy="4032.75" rx="6.48" ry="4.49"/><ellipse class="cls-6" cx="1541.62" cy="4146.17" rx="6.48" ry="4.49"/><ellipse class="cls-6" cx="1061.76" cy="4006.05" rx="6.48" ry="4.49"/><ellipse class="cls-6" cx="1498.03" cy="4483.07" rx="6.48" ry="4.49"/><ellipse class="cls-6" cx="1851.96" cy="3879.97" rx="6.48" ry="4.49"/><ellipse class="cls-6" cx="1201.59" cy="3917.44" rx="6.48" ry="4.49"/><ellipse class="cls-6" cx="1005.15" cy="4378.38" rx="6.48" ry="4.49"/><ellipse class="cls-6" cx="576.02" cy="4788.63" rx="6.48" ry="4.49"/><ellipse class="cls-6" cx="663.02" cy="4001.56" rx="6.48" ry="4.49"/><ellipse class="cls-6" cx="644.83" cy="4684.09" rx="6.48" ry="4.49"/><ellipse class="cls-6" cx="125.56" cy="4771.32" rx="6.48" ry="4.49"/><ellipse class="cls-6" cx="45.59" cy="4028.26" rx="6.48" ry="4.49"/><ellipse class="cls-6" cx="80.57" cy="4032.75" rx="6.48" ry="4.49"/><ellipse class="cls-6" cx="748.84" cy="4345.35" rx="6.48" ry="4.49"/><ellipse class="cls-6" cx="1252.6" cy="4281.74" rx="6.48" ry="4.49"/><path class="cls-6" d="M203.13,3994.86c0,3.7-4.33,6.7-9.67,6.7s-9.67-3-9.67-6.7,4.33-6.71,9.67-6.71S203.13,3991.15,203.13,3994.86Z"/><ellipse class="cls-6" cx="286.13" cy="3303.57" rx="12.95" ry="8.99"/><ellipse class="cls-6" cx="1744.56" cy="3387.69" rx="12.95" ry="8.99"/><path class="cls-6" d="M645,3382.46c0,5-5.8,9-12.95,9s-13-4-13-9,5.8-9,13-9S645,3377.5,645,3382.46Z"/><ellipse class="cls-6" cx="785.59" cy="3801.41" rx="12.95" ry="8.99"/><ellipse class="cls-6" cx="1493.06" cy="3360.19" rx="12.95" ry="8.99"/><ellipse class="cls-6" cx="1609.86" cy="3360.19" rx="12.95" ry="8.99"/><ellipse class="cls-6" cx="1006.79" cy="3294.84" rx="12.95" ry="8.99"/><ellipse class="cls-6" cx="1330.92" cy="3414.39" rx="12.95" ry="8.99"/><ellipse class="cls-6" cx="379.45" cy="3369.08" rx="6.48" ry="4.49"/><ellipse class="cls-6" cx="590.73" cy="3681.35" rx="6.48" ry="4.49"/><path class="cls-6" d="M80.57,3317.05c0,2.48-2.9,4.49-6.48,4.49s-6.48-2-6.48-4.49,2.9-4.49,6.48-4.49S80.57,3314.57,80.57,3317.05Z"/><ellipse class="cls-6" cx="913.71" cy="3418.88" rx="6.48" ry="4.49"/><ellipse class="cls-6" cx="365.13" cy="3432.36" rx="6.48" ry="4.49"/><ellipse class="cls-6" cx="1157.77" cy="3303.57" rx="6.48" ry="4.49"/><ellipse class="cls-6" cx="1087.59" cy="3621.07" rx="6.48" ry="4.49"/><ellipse class="cls-6" cx="1622.82" cy="3405.66" rx="6.48" ry="4.49"/><ellipse class="cls-6" cx="423.06" cy="3761.82" rx="6.48" ry="4.49"/><ellipse class="cls-6" cx="1515.2" cy="3739.02" rx="6.48" ry="4.49"/><ellipse class="cls-6" cx="1873.11" cy="3427.87" rx="6.48" ry="4.49"/><ellipse class="cls-6" cx="1541.62" cy="3541.28" rx="6.48" ry="4.49"/><ellipse class="cls-6" cx="1061.76" cy="3401.17" rx="6.48" ry="4.49"/><ellipse class="cls-6" cx="1851.96" cy="3275.09" rx="6.48" ry="4.49"/><ellipse class="cls-6" cx="1201.59" cy="3312.56" rx="6.48" ry="4.49"/><ellipse class="cls-6" cx="1005.15" cy="3773.5" rx="6.48" ry="4.49"/><ellipse class="cls-6" cx="663.02" cy="3396.68" rx="6.48" ry="4.49"/><ellipse class="cls-6" cx="45.59" cy="3423.37" rx="6.48" ry="4.49"/><ellipse class="cls-6" cx="80.57" cy="3427.87" rx="6.48" ry="4.49"/><ellipse class="cls-6" cx="748.84" cy="3740.47" rx="6.48" ry="4.49"/><ellipse class="cls-6" cx="1252.6" cy="3676.86" rx="6.48" ry="4.49"/><path class="cls-6" d="M203.13,3390c0,3.71-4.33,6.71-9.67,6.71s-9.67-3-9.67-6.71,4.33-6.7,9.67-6.7S203.13,3386.27,203.13,3390Z"/><polygon class="cls-6" points="8.64 289.76 16.31 576.51 291.24 593.13 319.79 285.54 486.84 283.32 486.84 609.8 545.71 618.4 559.77 571.14 572.56 618.4 1131.37 654.93 1137.6 272.82 1143.44 273.04 1143.44 654.63 1647.48 673.89 1647.48 290.52 1739.1 296.44 1739.1 641.26 1775.12 641.26 1805.02 308.76 1919.2 324.39 1918.35 724.95 0 586.27 0 290.52 8.64 289.76"/><polygon class="cls-11" points="809.12 644.76 837.17 1199.11 960 1187.81 930.84 653.56 809.12 644.76"/><polygon class="cls-13" points="0.62 4486.82 55.32 4575.44 74.28 4503.25 131.03 4461.81 218.76 4471.93 225.38 4433.21 163.59 4387.45 176.53 4346.97 225.38 4321.41 260.32 4346.97 260.32 4395.87 318.57 4330.01 376.14 4309.95 463.79 4379.9 452.91 4465.63 658.26 4575.44 671.7 4648.04 662.1 4695.81 635.24 4734.02 582.46 4779.86 0.62 4779.86 0.62 4486.82"/><polygon class="cls-13" points="1881.24 1333.16 1836.88 1333.16 1820.57 1289.5 1718.59 1239.05 1621.19 1279.01 1609.52 1239.05 1548.03 1201.42 1483.9 1223.02 1441.39 1306.74 1453.27 1408.03 1419.67 1435.03 1409.12 1515.77 1487.51 1598.15 1782.72 1527.28 1836.88 1427.16 1880.49 1427.16 1881.24 1333.16"/><polygon class="cls-14" points="66.86 4653.57 91 4512.59 118.82 4486.82 218.76 4503.25 260.32 4610.54 244.75 4703.82 210.59 4723.51 115.89 4723.51 66.86 4653.57"/><polygon class="cls-6" points="91 4512.59 74.89 4645.54 122.36 4678.65 210.59 4687.81 228.16 4672.94 241.67 4623.58 227.18 4598.17 239.54 4589.06 234.5 4567.75 218.76 4503.25 260.32 4610.54 244.75 4703.82 210.59 4723.51 115.89 4723.51 66.86 4653.57 91 4512.59"/><polygon class="cls-15" points="210.59 4723.51 210.59 4687.81 202.78 4645.54 214.46 4684.53 214.46 4723.51 210.59 4723.51"/><polygon class="cls-15" points="115.89 4723.51 122.36 4678.65 144.45 4619.67 144.45 4589.06 145.73 4622.95 125.05 4678.7 118.27 4723.51 115.89 4723.51"/><polygon class="cls-16" points="115.89 4723.51 115.89 4674.14 142.62 4618.03 144.45 4589.06 144.45 4619.67 122.36 4678.65 115.89 4723.51"/><polygon class="cls-16" points="203.53 4648.04 214.46 4684.53 214.46 4723.51 217.41 4682.03 203.53 4648.04"/><polygon class="cls-17" points="84.41 4566.97 149.57 4566.97 214.46 4531.56 231.54 4536.26 218.76 4503.25 118.82 4486.82 91 4512.59 84.41 4566.97"/><polygon class="cls-17" points="189.6 4619.31 208.62 4677.16 144.45 4677.16 163.59 4641.17 189.6 4619.31"/><polygon class="cls-6" points="66.86 4653.57 74.16 4648.23 121.33 4685.78 210.59 4690.36 231.54 4680.15 244.75 4703.82 210.59 4723.51 115.89 4723.51 66.86 4653.57"/><polygon class="cls-6" points="260.32 4610.54 239.54 4589.06 218.76 4503.25 260.32 4610.54"/><polygon class="cls-14" points="1444.91 1481.59 1441.62 1438.35 1447.56 1426.73 1476.67 1415.46 1495.92 1438.86 1498.21 1467.41 1490.06 1478.33 1463.59 1493.36 1444.91 1481.59"/><polygon class="cls-6" points="1441.62 1438.35 1446.58 1478.07 1462.2 1479.79 1487.52 1468.35 1491.37 1461.41 1491.64 1445.47 1485.78 1440.66 1488.58 1436.16 1485.66 1431 1476.67 1415.46 1495.92 1438.86 1498.21 1467.41 1490.06 1478.33 1463.59 1493.36 1444.91 1481.59 1441.62 1438.35"/><polygon class="cls-15" points="1490.06 1478.33 1487.52 1468.35 1482.33 1457.78 1488.37 1466.82 1491.14 1477.72 1490.06 1478.33"/><polygon class="cls-15" points="1463.59 1493.36 1462.2 1479.79 1464.18 1459.8 1462 1451.24 1464.77 1460.51 1462.96 1479.38 1464.26 1492.98 1463.59 1493.36"/><polygon class="cls-16" points="1463.59 1493.36 1460.08 1479.55 1463.55 1459.63 1462 1451.24 1464.18 1459.8 1462.2 1479.79 1463.59 1493.36"/><polygon class="cls-16" points="1482.71 1458.36 1488.37 1466.82 1491.14 1477.72 1489.02 1465.66 1482.71 1458.36"/><polygon class="cls-17" points="1443.65 1454.59 1461.86 1444.26 1477.48 1424.06 1482.59 1422.66 1476.67 1415.46 1447.56 1426.73 1441.62 1438.35 1443.65 1454.59"/><polygon class="cls-17" points="1476.78 1452.53 1486.21 1465.69 1468.27 1475.87 1471.06 1462.77 1476.78 1452.53"/><polygon class="cls-6" points="1444.91 1481.59 1446.57 1478.93 1462.42 1481.95 1487.7 1469.07 1492.83 1462.89 1498.21 1467.41 1490.06 1478.33 1463.59 1493.36 1444.91 1481.59"/><polygon class="cls-6" points="1495.92 1438.86 1488.58 1436.16 1476.67 1415.46 1495.92 1438.86"/><polygon class="cls-13" points="1920 2268.29 1874.84 2291.01 1858.53 2238.59 1775.12 2229.38 1750.33 2278.71 1745.27 2317.32 1722.17 2303.53 1686.97 2329.02 1660.74 2381.01 1683.14 2421.98 1781.97 2397.61 1827.34 2427.71 1895.5 2406.96 1919.77 2344.61 1920 2268.29"/><polygon class="cls-14" points="237.91 4412.98 247.1 4371.69 242.9 4358.49 215.98 4338.49 193.9 4355.44 187.71 4382.67 194.17 4395.87 217.99 4418.73 237.91 4412.98"/><polygon class="cls-6" points="247.1 4371.69 236.75 4409.02 221.23 4405.89 198.04 4386.89 195.23 4378.91 197.18 4363.23 203.58 4360.33 201.46 4355.06 205.03 4350.91 215.98 4338.49 193.9 4355.44 187.71 4382.67 194.17 4395.87 217.99 4418.73 237.91 4412.98 247.1 4371.69"/><polygon class="cls-15" points="194.17 4395.87 198.04 4386.89 204.59 4378.14 197.42 4385.13 193.2 4394.93 194.17 4395.87"/><polygon class="cls-15" points="217.99 4418.73 221.23 4405.89 222.06 4385.72 225.38 4378.02 221.38 4386.23 220.55 4405.25 217.4 4418.16 217.99 4418.73"/><polygon class="cls-16" points="217.99 4418.73 223.34 4406.31 222.7 4385.75 225.38 4378.02 222.06 4385.72 221.23 4405.89 217.99 4418.73"/><polygon class="cls-16" points="204.13 4378.59 197.42 4385.13 193.2 4394.93 196.95 4383.79 204.13 4378.59"/><polygon class="cls-17" points="242.87 4386.96 226.48 4371.22 213.99 4346.65 209.19 4343.7 215.98 4338.49 242.9 4358.49 247.1 4371.69 242.87 4386.96"/><polygon class="cls-17" points="210.74 4374.72 199.69 4384.69 215.83 4400.18 214.92 4386.5 210.74 4374.72"/><polygon class="cls-6" points="237.91 4412.98 236.65 4409.87 220.71 4407.93 197.77 4387.53 193.6 4379.9 187.71 4382.67 194.17 4395.87 217.99 4418.73 237.91 4412.98"/><polygon class="cls-6" points="193.9 4355.44 201.46 4355.06 215.98 4338.49 193.9 4355.44"/><polygon class="cls-14" points="1765.17 2340.1 1778.85 2260.18 1794.62 2245.57 1851.28 2254.88 1874.84 2315.7 1866.02 2368.59 1846.65 2379.75 1792.96 2379.75 1765.17 2340.1"/><polygon class="cls-6" points="1778.85 2260.18 1769.72 2335.55 1796.63 2354.31 1846.65 2359.51 1856.61 2351.08 1864.27 2323.1 1856.05 2308.69 1863.06 2303.53 1860.2 2291.45 1851.28 2254.88 1874.84 2315.7 1866.02 2368.59 1846.65 2379.75 1792.96 2379.75 1765.17 2340.1 1778.85 2260.18"/><polygon class="cls-15" points="1846.65 2379.75 1846.65 2359.51 1842.22 2335.55 1848.84 2357.65 1848.84 2379.75 1846.65 2379.75"/><polygon class="cls-15" points="1792.96 2379.75 1796.63 2354.31 1809.15 2320.88 1809.15 2303.53 1809.88 2322.74 1798.15 2354.34 1794.31 2379.75 1792.96 2379.75"/><polygon class="cls-16" points="1792.96 2379.75 1792.96 2351.76 1808.11 2319.95 1809.15 2303.53 1809.15 2320.88 1796.63 2354.31 1792.96 2379.75"/><polygon class="cls-16" points="1842.64 2336.96 1848.84 2357.65 1848.84 2379.75 1850.51 2356.24 1842.64 2336.96"/><polygon class="cls-17" points="1775.12 2291.01 1812.06 2291.01 1848.84 2270.93 1858.53 2273.59 1851.28 2254.88 1794.62 2245.57 1778.85 2260.18 1775.12 2291.01"/><polygon class="cls-17" points="1834.75 2320.67 1845.53 2353.47 1809.15 2353.47 1820 2333.07 1834.75 2320.67"/><polygon class="cls-6" points="1765.17 2340.1 1769.31 2337.07 1796.05 2358.36 1846.65 2360.95 1858.53 2355.17 1866.02 2368.59 1846.65 2379.75 1792.96 2379.75 1765.17 2340.1"/><polygon class="cls-6" points="1874.84 2315.7 1863.06 2303.53 1851.28 2254.88 1874.84 2315.7"/><polygon class="cls-14" points="423.68 4385.54 417.15 4435.42 363.12 4472.02 315.62 4461.52 290.09 4414.89 285.86 4391.92 288.81 4387.84 315.62 4350.57 358.37 4340.97 423.68 4385.54"/><polygon class="cls-17" points="423.68 4385.54 383.9 4399.22 328.09 4406.49 290.09 4391.92 288.81 4387.84 315.62 4350.57 358.37 4340.97 423.68 4385.54"/><polygon class="cls-6" points="286.32 4394.4 328.09 4411.11 382.51 4402.75 381.13 4432.27 387.66 4401.54 423.14 4389.67 417.15 4435.42 363.12 4472.02 315.62 4461.52 290.09 4414.89 286.32 4394.4"/><polygon class="cls-6" points="328.09 4411.11 363.12 4472.02 315.62 4461.52 290.09 4414.89 286.32 4394.4 328.09 4411.11"/><polygon class="cls-6" points="400.31 4397.31 395.29 4450.23 417.15 4435.42 423.14 4389.67 400.31 4397.31"/><polygon class="cls-15" points="365.69 4433.21 365.69 4401.59 351.44 4378.61 368.95 4401.17 365.69 4433.21"/><polygon class="cls-15" points="407.5 4406.49 409.21 4390.51 389.83 4383.74 387.01 4373.73 390.92 4381.74 412.95 4389.23 407.5 4406.49"/><polygon class="cls-15" points="302.71 4411.11 298.44 4399.25 303.89 4390.11 295.52 4398.08 302.71 4411.11"/><polygon class="cls-16" points="351.44 4378.61 368.95 4401.17 365.69 4433.21 371.13 4400.61 351.44 4378.61"/><polygon class="cls-16" points="303.89 4390.11 298.44 4399.25 302.71 4411.11 299.71 4398.36 303.89 4390.11"/><polygon class="cls-16" points="387.01 4373.73 389.83 4383.74 409.21 4390.51 407.5 4406.49 408.31 4391.38 388.65 4385.29 387.01 4373.73"/><polygon class="cls-13" points="786.42 160.23 751.22 211.9 768.82 264.62 847.58 271.98 906.67 217.66 906.67 200.83 786.42 160.23"/><polygon class="cls-14" points="1469.07 1286.92 1481.61 1334.18 1539.21 1355.39 1584.62 1332.09 1604 1279.28 1605.34 1255.54 1601.95 1252.33 1571.02 1223.02 1527.81 1225.26 1469.07 1286.92"/><polygon class="cls-17" points="1469.07 1286.92 1509.86 1289.5 1565.62 1281.4 1601.18 1256.69 1601.95 1252.33 1571.02 1223.02 1527.81 1225.26 1469.07 1286.92"/><polygon class="cls-6" points="1605.2 1258.1 1566.18 1285.94 1511.65 1292.6 1516.63 1321.23 1506.44 1292.81 1470.11 1290.84 1481.61 1334.18 1539.21 1355.39 1584.62 1332.09 1604 1279.28 1605.2 1258.1"/><polygon class="cls-6" points="1566.18 1285.94 1539.21 1355.39 1584.62 1332.09 1604 1279.28 1605.2 1258.1 1566.18 1285.94"/><polygon class="cls-6" points="1493.48 1292.11 1504.91 1342.76 1481.61 1334.18 1470.11 1290.84 1493.48 1292.11"/><polygon class="cls-15" points="1531.92 1317.94 1528.05 1286.86 1539.24 1260.37 1524.79 1287.33 1531.92 1317.94"/><polygon class="cls-15" points="1487.54 1303.1 1483.9 1287.86 1502.12 1275.9 1503.67 1265.29 1500.81 1274.24 1480.07 1287.62 1487.54 1303.1"/><polygon class="cls-15" points="1591.13 1279.01 1593.87 1266.18 1587.39 1258.68 1596.6 1264.23 1591.13 1279.01"/><polygon class="cls-16" points="1539.24 1260.37 1524.79 1287.33 1531.92 1317.94 1522.58 1287.38 1539.24 1260.37"/><polygon class="cls-16" points="1587.39 1258.68 1593.87 1266.18 1591.13 1279.01 1592.52 1265.65 1587.39 1258.68"/><polygon class="cls-16" points="1503.67 1265.29 1502.12 1275.9 1483.9 1287.86 1487.54 1303.1 1484.89 1288.47 1503.48 1277.1 1503.67 1265.29"/><polygon class="cls-13" points="0 698.08 56.14 725.3 119.39 708.45 178.49 795.31 171.77 813.78 100.98 876.67 0 870.72 0 698.08"/><polygon class="cls-14" points="843.42 207.68 840.32 231.42 814.61 248.83 792 243.84 779.86 221.65 777.84 210.72 779.25 208.78 792 191.05 812.35 186.47 843.42 207.68"/><polygon class="cls-17" points="843.42 207.68 824.5 214.2 797.94 217.66 779.86 210.72 779.25 208.78 792 191.05 812.35 186.47 843.42 207.68"/><polygon class="cls-6" points="778.06 211.9 797.94 219.85 823.84 215.88 823.18 229.92 826.28 215.3 843.17 209.65 840.32 231.42 814.61 248.83 792 243.84 779.86 221.65 778.06 211.9"/><polygon class="cls-6" points="797.94 219.85 814.61 248.83 792 243.84 779.86 221.65 778.06 211.9 797.94 219.85"/><polygon class="cls-6" points="832.3 213.28 829.91 238.47 840.32 231.42 843.17 209.65 832.3 213.28"/><polygon class="cls-15" points="815.83 230.37 815.83 215.32 809.05 204.39 817.38 215.12 815.83 230.37"/><polygon class="cls-15" points="835.73 217.66 836.54 210.05 827.32 206.83 825.98 202.06 827.84 205.88 838.32 209.44 835.73 217.66"/><polygon class="cls-15" points="785.86 219.85 783.83 214.21 786.42 209.86 782.44 213.65 785.86 219.85"/><polygon class="cls-16" points="809.05 204.39 817.38 215.12 815.83 230.37 818.42 214.86 809.05 204.39"/><polygon class="cls-16" points="786.42 209.86 783.83 214.21 785.86 219.85 784.43 213.79 786.42 209.86"/><polygon class="cls-16" points="825.98 202.06 827.32 206.83 836.54 210.05 835.73 217.66 836.11 210.47 826.75 207.56 825.98 202.06"/><polygon class="cls-13" points="206.47 2079.6 171.26 2131.27 188.86 2183.98 267.62 2191.34 326.71 2137.02 326.71 2120.2 206.47 2079.6"/><polygon class="cls-14" points="263.46 2127.05 260.36 2150.79 234.65 2168.2 212.04 2163.21 199.9 2141.02 197.88 2130.09 199.29 2128.15 212.04 2110.41 232.39 2105.84 263.46 2127.05"/><polygon class="cls-17" points="263.46 2127.05 244.53 2133.56 217.98 2137.02 199.9 2130.09 199.29 2128.15 212.04 2110.41 232.39 2105.84 263.46 2127.05"/><polygon class="cls-6" points="198.1 2131.27 217.98 2139.22 243.88 2135.24 243.22 2149.29 246.32 2134.66 263.21 2129.02 260.36 2150.79 234.65 2168.2 212.04 2163.21 199.9 2141.02 198.1 2131.27"/><polygon class="cls-6" points="217.98 2139.22 234.65 2168.2 212.04 2163.21 199.9 2141.02 198.1 2131.27 217.98 2139.22"/><polygon class="cls-6" points="252.34 2132.65 249.95 2157.83 260.36 2150.79 263.21 2129.02 252.34 2132.65"/><polygon class="cls-15" points="235.87 2149.73 235.87 2134.69 229.09 2123.75 237.42 2134.49 235.87 2149.73"/><polygon class="cls-15" points="255.76 2137.02 256.58 2129.42 247.36 2126.19 246.02 2121.43 247.88 2125.24 258.36 2128.8 255.76 2137.02"/><polygon class="cls-15" points="205.9 2139.22 203.87 2133.57 206.47 2129.23 202.48 2133.02 205.9 2139.22"/><polygon class="cls-16" points="229.09 2123.75 237.42 2134.49 235.87 2149.73 238.46 2134.22 229.09 2123.75"/><polygon class="cls-16" points="206.47 2129.23 203.87 2133.57 205.9 2139.22 204.47 2133.15 206.47 2129.23"/><polygon class="cls-16" points="246.02 2121.43 247.36 2126.19 256.58 2129.42 255.76 2137.02 256.15 2129.83 246.79 2126.93 246.02 2121.43"/><polygon class="cls-13" points="185 2959.22 149.8 3010.89 167.4 3063.61 246.16 3070.97 305.25 3016.65 305.25 2999.82 185 2959.22"/><polygon class="cls-14" points="242 3006.68 238.9 3030.41 213.19 3047.83 190.59 3042.83 178.44 3020.65 176.43 3009.71 177.83 3007.77 190.59 2990.04 210.93 2985.47 242 3006.68"/><polygon class="cls-17" points="242 3006.68 223.08 3013.19 196.52 3016.65 178.44 3009.71 177.83 3007.77 190.59 2990.04 210.93 2985.47 242 3006.68"/><polygon class="cls-6" points="176.64 3010.89 196.52 3018.84 222.42 3014.87 221.76 3028.91 224.87 3014.29 241.75 3008.64 238.9 3030.41 213.19 3047.83 190.59 3042.83 178.44 3020.65 176.64 3010.89"/><polygon class="cls-6" points="196.52 3018.84 213.19 3047.83 190.59 3042.83 178.44 3020.65 176.64 3010.89 196.52 3018.84"/><polygon class="cls-6" points="230.88 3012.28 228.5 3037.46 238.9 3030.41 241.75 3008.64 230.88 3012.28"/><polygon class="cls-15" points="214.41 3029.36 214.41 3014.32 207.63 3003.38 215.97 3014.11 214.41 3029.36"/><polygon class="cls-15" points="234.31 3016.65 235.12 3009.04 225.9 3005.82 224.56 3001.06 226.42 3004.87 236.9 3008.43 234.31 3016.65"/><polygon class="cls-15" points="184.44 3018.84 182.41 3013.2 185 3008.85 181.02 3012.64 184.44 3018.84"/><polygon class="cls-16" points="207.63 3003.38 215.97 3014.11 214.41 3029.36 217 3013.85 207.63 3003.38"/><polygon class="cls-16" points="185 3008.85 182.41 3013.2 184.44 3018.84 183.01 3012.78 185 3008.85"/><polygon class="cls-16" points="224.56 3001.06 225.9 3005.82 235.12 3009.04 234.31 3016.65 234.69 3009.46 225.34 3006.56 224.56 3001.06"/><polygon class="cls-13" points="1687.99 4603.75 1652.78 4655.42 1670.38 4708.14 1749.14 4715.5 1808.24 4661.18 1808.24 4644.35 1687.99 4603.75"/><polygon class="cls-14" points="1744.99 4651.2 1741.88 4674.94 1716.17 4692.35 1693.57 4687.36 1681.42 4665.17 1679.41 4654.24 1680.81 4652.3 1693.57 4634.57 1713.91 4629.99 1744.99 4651.2"/><polygon class="cls-17" points="1744.99 4651.2 1726.06 4657.72 1699.5 4661.18 1681.42 4654.24 1680.81 4652.3 1693.57 4634.57 1713.91 4629.99 1744.99 4651.2"/><polygon class="cls-6" points="1679.63 4655.42 1699.5 4663.37 1725.4 4659.4 1724.74 4673.44 1727.85 4658.82 1744.73 4653.17 1741.88 4674.94 1716.17 4692.35 1693.57 4687.36 1681.42 4665.17 1679.63 4655.42"/><polygon class="cls-6" points="1699.5 4663.37 1716.17 4692.35 1693.57 4687.36 1681.42 4665.17 1679.63 4655.42 1699.5 4663.37"/><polygon class="cls-6" points="1733.87 4656.81 1731.48 4681.99 1741.88 4674.94 1744.73 4653.17 1733.87 4656.81"/><polygon class="cls-15" points="1717.39 4673.89 1717.39 4658.85 1710.62 4647.91 1718.95 4658.64 1717.39 4673.89"/><polygon class="cls-15" points="1737.29 4661.18 1738.11 4653.57 1728.88 4650.35 1727.54 4645.59 1729.4 4649.4 1739.88 4652.96 1737.29 4661.18"/><polygon class="cls-15" points="1687.43 4663.37 1685.39 4657.73 1687.99 4653.38 1684.01 4657.17 1687.43 4663.37"/><polygon class="cls-16" points="1710.62 4647.91 1718.95 4658.64 1717.39 4673.89 1719.98 4658.38 1710.62 4647.91"/><polygon class="cls-16" points="1687.99 4653.38 1685.39 4657.73 1687.43 4663.37 1686 4657.31 1687.99 4653.38"/><polygon class="cls-16" points="1727.54 4645.59 1728.88 4650.35 1738.11 4653.57 1737.29 4661.18 1737.68 4653.99 1728.32 4651.09 1727.54 4645.59"/><polygon class="cls-14" points="130.66 772.62 127.56 796.36 101.85 813.78 79.25 808.78 67.1 786.59 65.08 775.66 66.49 773.72 79.25 755.99 99.59 751.42 130.66 772.62"/><polygon class="cls-17" points="130.66 772.62 111.73 779.14 85.18 782.6 67.1 775.66 66.49 773.72 79.25 755.99 99.59 751.42 130.66 772.62"/><polygon class="cls-6" points="65.3 776.84 85.18 784.79 111.08 780.82 110.42 794.86 113.53 780.24 130.41 774.59 127.56 796.36 101.85 813.78 79.25 808.78 67.1 786.59 65.3 776.84"/><polygon class="cls-6" points="85.18 784.79 101.85 813.78 79.25 808.78 67.1 786.59 65.3 776.84 85.18 784.79"/><polygon class="cls-6" points="119.55 778.23 117.15 803.41 127.56 796.36 130.41 774.59 119.55 778.23"/><polygon class="cls-15" points="103.07 795.31 103.07 780.26 96.29 769.33 104.62 780.06 103.07 795.31"/><polygon class="cls-15" points="122.97 782.6 123.78 774.99 114.56 771.77 113.22 767.01 115.08 770.82 125.56 774.38 122.97 782.6"/><polygon class="cls-15" points="73.1 784.79 71.07 779.15 73.67 774.8 69.68 778.59 73.1 784.79"/><polygon class="cls-16" points="96.29 769.33 104.62 780.06 103.07 795.31 105.66 779.8 96.29 769.33"/><polygon class="cls-16" points="73.67 774.8 71.07 779.15 73.1 784.79 71.67 778.73 73.67 774.8"/><polygon class="cls-16" points="113.22 767.01 114.56 771.77 123.78 774.99 122.97 782.6 123.35 775.41 114 772.51 113.22 767.01"/><polygon class="cls-13" points="0 1715.9 56.14 1743.12 119.39 1726.27 178.49 1813.12 171.77 1831.59 100.98 1894.49 0 1888.53 0 1715.9"/><polygon class="cls-14" points="130.66 1790.44 127.56 1814.18 101.85 1831.59 79.25 1826.6 67.1 1804.41 65.08 1793.48 66.49 1791.54 79.25 1773.8 99.59 1769.23 130.66 1790.44"/><polygon class="cls-17" points="130.66 1790.44 111.73 1796.95 85.18 1800.41 67.1 1793.48 66.49 1791.54 79.25 1773.8 99.59 1769.23 130.66 1790.44"/><polygon class="cls-6" points="65.3 1794.66 85.18 1802.61 111.08 1798.63 110.42 1812.68 113.53 1798.06 130.41 1792.41 127.56 1814.18 101.85 1831.59 79.25 1826.6 67.1 1804.41 65.3 1794.66"/><polygon class="cls-6" points="85.18 1802.61 101.85 1831.59 79.25 1826.6 67.1 1804.41 65.3 1794.66 85.18 1802.61"/><polygon class="cls-6" points="119.55 1796.04 117.15 1821.22 127.56 1814.18 130.41 1792.41 119.55 1796.04"/><polygon class="cls-15" points="103.07 1813.12 103.07 1798.08 96.29 1787.14 104.62 1797.88 103.07 1813.12"/><polygon class="cls-15" points="122.97 1800.41 123.78 1792.81 114.56 1789.58 113.22 1784.82 115.08 1788.63 125.56 1792.2 122.97 1800.41"/><polygon class="cls-15" points="73.1 1802.61 71.07 1796.96 73.67 1792.62 69.68 1796.41 73.1 1802.61"/><polygon class="cls-16" points="96.29 1787.14 104.62 1797.88 103.07 1813.12 105.66 1797.61 96.29 1787.14"/><polygon class="cls-16" points="73.67 1792.62 71.07 1796.96 73.1 1802.61 71.67 1796.54 73.67 1792.62"/><polygon class="cls-16" points="113.22 1784.82 114.56 1789.58 123.78 1792.81 122.97 1800.41 123.35 1793.22 114 1790.32 113.22 1784.82"/><polygon class="cls-13" points="1916.58 3218.17 1860.45 3245.39 1797.19 3228.54 1738.1 3315.4 1744.82 3333.87 1815.61 3396.77 1916.58 3390.81 1916.58 3218.17"/><polygon class="cls-14" points="1785.92 3292.72 1789.03 3316.45 1814.74 3333.87 1837.34 3328.87 1849.49 3306.69 1851.5 3295.75 1850.1 3293.81 1837.34 3276.08 1817 3271.51 1785.92 3292.72"/><polygon class="cls-17" points="1785.92 3292.72 1804.85 3299.23 1831.41 3302.69 1849.49 3295.75 1850.1 3293.81 1837.34 3276.08 1817 3271.51 1785.92 3292.72"/><polygon class="cls-6" points="1851.28 3296.93 1831.41 3304.89 1805.51 3300.91 1806.17 3314.95 1803.06 3300.33 1786.18 3294.68 1789.03 3316.45 1814.74 3333.87 1837.34 3328.87 1849.49 3306.69 1851.28 3296.93"/><polygon class="cls-6" points="1831.41 3304.89 1814.74 3333.87 1837.34 3328.87 1849.49 3306.69 1851.28 3296.93 1831.41 3304.89"/><polygon class="cls-6" points="1797.04 3298.32 1799.43 3323.5 1789.03 3316.45 1786.18 3294.68 1797.04 3298.32"/><polygon class="cls-15" points="1813.51 3315.4 1813.51 3300.36 1820.29 3289.42 1811.96 3300.16 1813.51 3315.4"/><polygon class="cls-15" points="1793.62 3302.69 1792.8 3295.09 1802.02 3291.86 1803.37 3287.1 1801.51 3290.91 1791.02 3294.47 1793.62 3302.69"/><polygon class="cls-15" points="1843.48 3304.89 1845.51 3299.24 1842.92 3294.89 1846.9 3298.69 1843.48 3304.89"/><polygon class="cls-16" points="1820.29 3289.42 1811.96 3300.16 1813.51 3315.4 1810.92 3299.89 1820.29 3289.42"/><polygon class="cls-16" points="1842.92 3294.89 1845.51 3299.24 1843.48 3304.89 1844.91 3298.82 1842.92 3294.89"/><polygon class="cls-16" points="1803.37 3287.1 1802.02 3291.86 1792.8 3295.09 1793.62 3302.69 1793.23 3295.5 1802.59 3292.6 1803.37 3287.1"/><polygon class="cls-14" points="1756.55 2350.23 1753.44 2373.97 1727.73 2391.38 1705.13 2386.39 1692.98 2364.2 1690.97 2353.26 1692.37 2351.32 1705.13 2333.59 1725.47 2329.02 1756.55 2350.23"/><polygon class="cls-17" points="1756.55 2350.23 1737.62 2356.74 1711.06 2360.2 1692.98 2353.26 1692.37 2351.32 1705.13 2333.59 1725.47 2329.02 1756.55 2350.23"/><polygon class="cls-6" points="1691.19 2354.45 1711.06 2362.4 1736.96 2358.42 1736.3 2372.47 1739.41 2357.84 1756.29 2352.2 1753.44 2373.97 1727.73 2391.38 1705.13 2386.39 1692.98 2364.2 1691.19 2354.45"/><polygon class="cls-6" points="1711.06 2362.4 1727.73 2391.38 1705.13 2386.39 1692.98 2364.2 1691.19 2354.45 1711.06 2362.4"/><polygon class="cls-6" points="1745.43 2355.83 1743.04 2381.01 1753.44 2373.97 1756.29 2352.2 1745.43 2355.83"/><polygon class="cls-15" points="1728.95 2372.91 1728.95 2357.87 1722.17 2346.93 1730.51 2357.67 1728.95 2372.91"/><polygon class="cls-15" points="1748.85 2360.2 1749.66 2352.6 1740.44 2349.37 1739.1 2344.61 1740.96 2348.42 1751.44 2351.98 1748.85 2360.2"/><polygon class="cls-15" points="1698.99 2362.4 1696.95 2356.75 1699.55 2352.4 1695.57 2356.2 1698.99 2362.4"/><polygon class="cls-16" points="1722.17 2346.93 1730.51 2357.67 1728.95 2372.91 1731.55 2357.4 1722.17 2346.93"/><polygon class="cls-16" points="1699.55 2352.4 1696.95 2356.75 1698.99 2362.4 1697.56 2356.33 1699.55 2352.4"/><polygon class="cls-16" points="1739.1 2344.61 1740.44 2349.37 1749.66 2352.6 1748.85 2360.2 1749.24 2353.01 1739.88 2350.11 1739.1 2344.61"/><polygon class="cls-13" points="1920 373.75 1874.84 396.47 1858.53 344.06 1775.12 334.85 1750.33 384.18 1745.27 422.78 1722.17 408.99 1686.97 434.48 1660.74 486.48 1683.14 527.44 1781.97 503.07 1827.34 533.17 1895.5 512.42 1919.77 450.07 1920 373.75"/><polygon class="cls-14" points="1765.17 445.56 1778.85 365.64 1794.62 351.03 1851.28 360.34 1874.84 421.17 1866.02 474.05 1846.65 485.21 1792.96 485.21 1765.17 445.56"/><polygon class="cls-6" points="1778.85 365.64 1769.72 441.01 1796.63 459.78 1846.65 464.97 1856.61 456.55 1864.27 428.56 1856.05 414.16 1863.06 408.99 1860.2 396.91 1851.28 360.34 1874.84 421.17 1866.02 474.05 1846.65 485.21 1792.96 485.21 1765.17 445.56 1778.85 365.64"/><polygon class="cls-15" points="1846.65 485.21 1846.65 464.97 1842.22 441.01 1848.84 463.11 1848.84 485.21 1846.65 485.21"/><polygon class="cls-15" points="1792.96 485.21 1796.63 459.78 1809.15 426.34 1809.15 408.99 1809.88 428.2 1798.15 459.81 1794.31 485.21 1792.96 485.21"/><polygon class="cls-16" points="1792.96 485.21 1792.96 457.22 1808.11 425.42 1809.15 408.99 1809.15 426.34 1796.63 459.78 1792.96 485.21"/><polygon class="cls-16" points="1842.64 442.43 1848.84 463.11 1848.84 485.21 1850.51 461.7 1842.64 442.43"/><polygon class="cls-17" points="1775.12 396.47 1812.06 396.47 1848.84 376.39 1858.53 379.06 1851.28 360.34 1794.62 351.03 1778.85 365.64 1775.12 396.47"/><polygon class="cls-17" points="1834.75 426.14 1845.53 458.94 1809.15 458.94 1820 438.53 1834.75 426.14"/><polygon class="cls-6" points="1765.17 445.56 1769.31 442.54 1796.05 463.82 1846.65 466.42 1858.53 460.63 1866.02 474.05 1846.65 485.21 1792.96 485.21 1765.17 445.56"/><polygon class="cls-6" points="1874.84 421.17 1863.06 408.99 1851.28 360.34 1874.84 421.17"/><polygon class="cls-14" points="1756.55 455.69 1753.44 479.43 1727.73 496.84 1705.13 491.85 1692.98 469.66 1690.97 458.73 1692.37 456.79 1705.13 439.06 1725.47 434.48 1756.55 455.69"/><polygon class="cls-17" points="1756.55 455.69 1737.62 462.2 1711.06 465.66 1692.98 458.73 1692.37 456.79 1705.13 439.06 1725.47 434.48 1756.55 455.69"/><polygon class="cls-6" points="1691.19 459.91 1711.06 467.86 1736.96 463.88 1736.3 477.93 1739.41 463.31 1756.29 457.66 1753.44 479.43 1727.73 496.84 1705.13 491.85 1692.98 469.66 1691.19 459.91"/><polygon class="cls-6" points="1711.06 467.86 1727.73 496.84 1705.13 491.85 1692.98 469.66 1691.19 459.91 1711.06 467.86"/><polygon class="cls-6" points="1745.43 461.29 1743.04 486.48 1753.44 479.43 1756.29 457.66 1745.43 461.29"/><polygon class="cls-15" points="1728.95 478.38 1728.95 463.33 1722.17 452.4 1730.51 463.13 1728.95 478.38"/><polygon class="cls-15" points="1748.85 465.66 1749.66 458.06 1740.44 454.84 1739.1 450.07 1740.96 453.89 1751.44 457.45 1748.85 465.66"/><polygon class="cls-15" points="1698.99 467.86 1696.95 462.22 1699.55 457.87 1695.57 461.66 1698.99 467.86"/><polygon class="cls-16" points="1722.17 452.4 1730.51 463.13 1728.95 478.38 1731.55 462.86 1722.17 452.4"/><polygon class="cls-16" points="1699.55 457.87 1696.95 462.22 1698.99 467.86 1697.56 461.8 1699.55 457.87"/><polygon class="cls-16" points="1739.1 450.07 1740.44 454.84 1749.66 458.06 1748.85 465.66 1749.24 458.47 1739.88 455.57 1739.1 450.07"/><polygon class="cls-13" points="1004.61 2636.32 959.45 2659.04 943.14 2606.63 859.72 2597.42 834.94 2646.75 829.88 2685.35 806.78 2671.57 771.58 2697.06 745.35 2749.05 767.75 2790.01 866.58 2765.65 911.95 2795.75 980.11 2774.99 1004.38 2712.65 1004.61 2636.32"/><polygon class="cls-14" points="849.77 2708.14 863.46 2628.22 879.23 2613.61 935.89 2622.92 959.45 2683.74 950.62 2736.63 931.25 2747.79 877.57 2747.79 849.77 2708.14"/><polygon class="cls-6" points="863.46 2628.22 854.33 2703.59 881.24 2722.35 931.25 2727.55 941.22 2719.12 948.88 2691.14 940.66 2676.73 947.67 2671.57 944.81 2659.48 935.89 2622.92 959.45 2683.74 950.62 2736.63 931.25 2747.79 877.57 2747.79 849.77 2708.14 863.46 2628.22"/><polygon class="cls-15" points="931.25 2747.79 931.25 2727.55 926.83 2703.59 933.45 2725.69 933.45 2747.79 931.25 2747.79"/><polygon class="cls-15" points="877.57 2747.79 881.24 2722.35 893.76 2688.92 893.76 2671.57 894.49 2690.78 882.76 2722.38 878.92 2747.79 877.57 2747.79"/><polygon class="cls-16" points="877.57 2747.79 877.57 2719.8 892.72 2687.99 893.76 2671.57 893.76 2688.92 881.24 2722.35 877.57 2747.79"/><polygon class="cls-16" points="927.25 2705 933.45 2725.69 933.45 2747.79 935.12 2724.28 927.25 2705"/><polygon class="cls-17" points="859.72 2659.04 896.67 2659.04 933.45 2638.97 943.14 2641.63 935.89 2622.92 879.23 2613.61 863.46 2628.22 859.72 2659.04"/><polygon class="cls-17" points="919.36 2688.71 930.14 2721.51 893.76 2721.51 904.61 2701.11 919.36 2688.71"/><polygon class="cls-6" points="849.77 2708.14 853.91 2705.11 880.65 2726.4 931.25 2728.99 943.14 2723.21 950.62 2736.63 931.25 2747.79 877.57 2747.79 849.77 2708.14"/><polygon class="cls-6" points="959.45 2683.74 947.67 2671.57 935.89 2622.92 959.45 2683.74"/><polygon class="cls-14" points="841.16 2718.27 838.05 2742.01 812.34 2759.42 789.74 2754.43 777.59 2732.24 775.58 2721.3 776.98 2719.36 789.74 2701.63 810.08 2697.06 841.16 2718.27"/><polygon class="cls-17" points="841.16 2718.27 822.23 2724.78 795.67 2728.24 777.59 2721.3 776.98 2719.36 789.74 2701.63 810.08 2697.06 841.16 2718.27"/><polygon class="cls-6" points="775.79 2722.49 795.67 2730.44 821.57 2726.46 820.91 2740.51 824.02 2725.88 840.9 2720.24 838.05 2742.01 812.34 2759.42 789.74 2754.43 777.59 2732.24 775.79 2722.49"/><polygon class="cls-6" points="795.67 2730.44 812.34 2759.42 789.74 2754.43 777.59 2732.24 775.79 2722.49 795.67 2730.44"/><polygon class="cls-6" points="830.04 2723.87 827.65 2749.05 838.05 2742.01 840.9 2720.24 830.04 2723.87"/><polygon class="cls-15" points="813.57 2740.95 813.57 2725.91 806.78 2714.97 815.12 2725.71 813.57 2740.95"/><polygon class="cls-15" points="833.46 2728.24 834.27 2720.64 825.05 2717.41 823.71 2712.65 825.57 2716.46 836.05 2720.02 833.46 2728.24"/><polygon class="cls-15" points="783.6 2730.44 781.56 2724.79 784.16 2720.44 780.17 2724.24 783.6 2730.44"/><polygon class="cls-16" points="806.78 2714.97 815.12 2725.71 813.57 2740.95 816.15 2725.44 806.78 2714.97"/><polygon class="cls-16" points="784.16 2720.44 781.56 2724.79 783.6 2730.44 782.17 2724.37 784.16 2720.44"/><polygon class="cls-16" points="823.71 2712.65 825.05 2717.41 834.27 2720.64 833.46 2728.24 833.85 2721.05 824.49 2718.15 823.71 2712.65"/><polygon class="cls-13" points="1913.69 3958.06 1868.53 3980.78 1852.22 3928.37 1768.8 3919.16 1744.02 3968.49 1738.96 4007.09 1715.86 3993.3 1680.66 4018.79 1654.43 4070.79 1676.82 4111.75 1775.66 4087.38 1821.03 4117.48 1889.19 4096.73 1913.45 4034.38 1913.69 3958.06"/><polygon class="cls-14" points="1758.85 4029.87 1772.54 3949.95 1788.31 3935.34 1844.97 3944.65 1868.53 4005.48 1859.7 4058.36 1840.33 4069.52 1786.65 4069.52 1758.85 4029.87"/><polygon class="cls-6" points="1772.54 3949.95 1763.41 4025.32 1790.32 4044.09 1840.33 4049.28 1850.3 4040.86 1857.96 4012.87 1849.74 3998.47 1856.75 3993.3 1853.89 3981.22 1844.97 3944.65 1868.53 4005.48 1859.7 4058.36 1840.33 4069.52 1786.65 4069.52 1758.85 4029.87 1772.54 3949.95"/><polygon class="cls-15" points="1840.33 4069.52 1840.33 4049.28 1835.91 4025.32 1842.53 4047.42 1842.53 4069.52 1840.33 4069.52"/><polygon class="cls-15" points="1786.65 4069.52 1790.32 4044.09 1802.84 4010.65 1802.84 3993.3 1803.57 4012.51 1791.84 4044.12 1788 4069.52 1786.65 4069.52"/><polygon class="cls-16" points="1786.65 4069.52 1786.65 4041.53 1801.8 4009.72 1802.84 3993.3 1802.84 4010.65 1790.32 4044.09 1786.65 4069.52"/><polygon class="cls-16" points="1836.33 4026.74 1842.53 4047.42 1842.53 4069.52 1844.2 4046.01 1836.33 4026.74"/><polygon class="cls-17" points="1768.8 3980.78 1805.74 3980.78 1842.53 3960.7 1852.22 3963.36 1844.97 3944.65 1788.31 3935.34 1772.54 3949.95 1768.8 3980.78"/><polygon class="cls-17" points="1828.43 4010.45 1839.22 4043.25 1802.84 4043.25 1813.69 4022.84 1828.43 4010.45"/><polygon class="cls-6" points="1758.85 4029.87 1762.99 4026.85 1789.73 4048.13 1840.33 4050.73 1852.22 4044.94 1859.7 4058.36 1840.33 4069.52 1786.65 4069.52 1758.85 4029.87"/><polygon class="cls-6" points="1868.53 4005.48 1856.75 3993.3 1844.97 3944.65 1868.53 4005.48"/><polygon class="cls-14" points="1750.24 4040 1747.13 4063.74 1721.42 4081.15 1698.82 4076.16 1686.67 4053.97 1684.66 4043.04 1686.06 4041.1 1698.82 4023.37 1719.16 4018.79 1750.24 4040"/><polygon class="cls-17" points="1750.24 4040 1731.31 4046.51 1704.75 4049.97 1686.67 4043.04 1686.06 4041.1 1698.82 4023.37 1719.16 4018.79 1750.24 4040"/><polygon class="cls-6" points="1684.87 4044.22 1704.75 4052.17 1730.65 4048.2 1729.99 4062.24 1733.1 4047.62 1749.98 4041.97 1747.13 4063.74 1721.42 4081.15 1698.82 4076.16 1686.67 4053.97 1684.87 4044.22"/><polygon class="cls-6" points="1704.75 4052.17 1721.42 4081.15 1698.82 4076.16 1686.67 4053.97 1684.87 4044.22 1704.75 4052.17"/><polygon class="cls-6" points="1739.12 4045.6 1736.73 4070.79 1747.13 4063.74 1749.98 4041.97 1739.12 4045.6"/><polygon class="cls-15" points="1722.64 4062.69 1722.64 4047.64 1715.86 4036.71 1724.2 4047.44 1722.64 4062.69"/><polygon class="cls-15" points="1742.54 4049.97 1743.35 4042.37 1734.13 4039.15 1732.79 4034.38 1734.65 4038.2 1745.13 4041.76 1742.54 4049.97"/><polygon class="cls-15" points="1692.67 4052.17 1690.64 4046.53 1693.24 4042.18 1689.25 4045.97 1692.67 4052.17"/><polygon class="cls-16" points="1715.86 4036.71 1724.2 4047.44 1722.64 4062.69 1725.23 4047.17 1715.86 4036.71"/><polygon class="cls-16" points="1693.24 4042.18 1690.64 4046.53 1692.67 4052.17 1691.25 4046.11 1693.24 4042.18"/><polygon class="cls-16" points="1732.79 4034.38 1734.13 4039.15 1743.35 4042.37 1742.54 4049.97 1742.93 4042.78 1733.57 4039.88 1732.79 4034.38"/><polygon class="cls-14" points="356.24 4633.39 364.51 4568.47 444.66 4493.74 639.01 4580.43 646.75 4631.81 619.23 4690.74 407.69 4704.56 356.24 4633.39"/><polygon class="cls-17" points="364.51 4568.47 367.86 4618.21 537.54 4644.22 645.45 4623.16 639.01 4580.43 444.66 4493.74 364.51 4568.47"/><polygon class="cls-6" points="364.51 4568.47 364.51 4627.53 536.68 4654.49 646.75 4631.81 619.23 4690.74 407.69 4704.56 356.24 4633.39 364.51 4568.47"/><polygon class="cls-6" points="536.68 4654.49 407.69 4704.56 619.23 4690.74 646.75 4631.81 536.68 4654.49"/><polygon class="cls-15" points="402.53 4668.18 410.84 4627.96 429.76 4595.86 407.69 4624.31 402.53 4668.18"/><polygon class="cls-15" points="612.78 4659.63 616.22 4636.52 582.68 4603.14 577.31 4584.2 586.34 4601.53 623.75 4632.02 612.78 4659.63"/><polygon class="cls-16" points="402.53 4668.18 407.69 4624.31 429.76 4595.86 402.53 4623.52 402.53 4668.18"/><polygon class="cls-16" points="577.31 4584.2 586.34 4601.53 623.75 4632.02 612.78 4659.63 628.26 4631.81 588.16 4600.61 577.31 4584.2"/><polygon class="cls-17" points="364.51 4568.47 472.61 4533.81 582.46 4555.2 444.66 4493.74 364.51 4568.47"/><polygon class="cls-14" points="1832.7 1375.41 1815.85 1314.3 1727.27 1265.16 1548.58 1408.44 1547.91 1461.09 1582.81 1510.56 1791.89 1460.58 1832.7 1375.41"/><polygon class="cls-17" points="1815.85 1314.3 1819.27 1364.03 1656.57 1440.46 1548.03 1452.23 1548.58 1408.44 1727.27 1265.16 1815.85 1314.3"/><polygon class="cls-6" points="1815.85 1314.3 1823.81 1372.15 1658.79 1450.26 1547.91 1461.09 1582.81 1510.56 1791.89 1460.58 1832.7 1375.41 1815.85 1314.3"/><polygon class="cls-6" points="1658.79 1450.26 1791.89 1460.58 1582.81 1510.56 1547.91 1461.09 1658.79 1450.26"/><polygon class="cls-15" points="1792.05 1423.39 1778.49 1386.48 1755.63 1360.72 1781.08 1381.96 1792.05 1423.39"/><polygon class="cls-15" points="1584.93 1478.14 1578.45 1456.54 1606.81 1413.77 1609.52 1393.6 1603.01 1413.29 1570.48 1454.39 1584.93 1478.14"/><polygon class="cls-16" points="1792.05 1423.39 1781.08 1381.96 1755.63 1360.72 1786.03 1379.64 1792.05 1423.39"/><polygon class="cls-16" points="1609.52 1393.6 1603.01 1413.29 1570.48 1454.39 1584.93 1478.14 1566.03 1455.54 1601.11 1412.93 1609.52 1393.6"/><polygon class="cls-17" points="1815.85 1314.3 1705.29 1312.8 1600.58 1366.75 1727.27 1265.16 1815.85 1314.3"/><polygon class="cls-13" points="16.13 3514.2 60.49 3514.2 76.8 3470.55 178.78 3420.1 276.18 3460.05 287.85 3420.1 349.34 3382.46 413.47 3404.06 455.98 3487.79 444.1 3589.07 477.69 3616.07 488.25 3696.81 409.86 3779.2 114.65 3708.32 60.49 3608.21 16.88 3608.21 16.13 3514.2"/><polygon class="cls-14" points="452.46 3662.63 455.75 3619.39 449.81 3607.77 420.7 3596.51 401.45 3619.91 399.16 3648.45 407.31 3659.38 433.78 3674.4 452.46 3662.63"/><polygon class="cls-6" points="455.75 3619.39 450.79 3659.11 435.16 3660.83 409.85 3649.39 405.99 3642.45 405.73 3626.51 411.59 3621.71 408.78 3617.2 411.71 3612.04 420.7 3596.51 401.45 3619.91 399.16 3648.45 407.31 3659.38 433.78 3674.4 452.46 3662.63 455.75 3619.39"/><polygon class="cls-15" points="407.31 3659.38 409.85 3649.39 415.04 3638.82 409 3647.86 406.22 3658.76 407.31 3659.38"/><polygon class="cls-15" points="433.78 3674.4 435.16 3660.83 433.19 3640.84 435.36 3632.29 432.59 3641.55 434.41 3660.42 433.11 3674.02 433.78 3674.4"/><polygon class="cls-16" points="433.78 3674.4 437.29 3660.6 433.81 3640.67 435.36 3632.29 433.19 3640.84 435.16 3660.83 433.78 3674.4"/><polygon class="cls-16" points="414.65 3639.4 409 3647.86 406.22 3658.76 408.35 3646.7 414.65 3639.4"/><polygon class="cls-17" points="453.72 3635.64 435.5 3625.3 419.89 3605.1 414.78 3603.71 420.7 3596.51 449.81 3607.77 455.75 3619.39 453.72 3635.64"/><polygon class="cls-17" points="420.59 3633.58 411.15 3646.73 429.09 3656.91 426.31 3643.81 420.59 3633.58"/><polygon class="cls-6" points="452.46 3662.63 450.8 3659.98 434.94 3662.99 409.67 3650.11 404.53 3643.93 399.16 3648.45 407.31 3659.38 433.78 3674.4 452.46 3662.63"/><polygon class="cls-6" points="401.45 3619.91 408.78 3617.2 420.7 3596.51 401.45 3619.91"/><polygon class="cls-14" points="428.3 3467.96 415.76 3515.22 358.16 3536.43 312.75 3513.14 293.37 3460.32 292.03 3436.58 295.42 3433.37 326.35 3404.06 369.55 3406.3 428.3 3467.96"/><polygon class="cls-17" points="428.3 3467.96 387.51 3470.55 331.75 3462.44 296.18 3437.73 295.42 3433.37 326.35 3404.06 369.55 3406.3 428.3 3467.96"/><polygon class="cls-6" points="292.17 3439.14 331.19 3466.98 385.72 3473.64 380.74 3502.28 390.93 3473.85 427.26 3471.88 415.76 3515.22 358.16 3536.43 312.75 3513.14 293.37 3460.32 292.17 3439.14"/><polygon class="cls-6" points="331.19 3466.98 358.16 3536.43 312.75 3513.14 293.37 3460.32 292.17 3439.14 331.19 3466.98"/><polygon class="cls-6" points="403.88 3473.15 392.45 3523.8 415.76 3515.22 427.26 3471.88 403.88 3473.15"/><polygon class="cls-15" points="365.44 3498.98 369.32 3467.9 358.13 3441.41 372.58 3468.38 365.44 3498.98"/><polygon class="cls-15" points="409.82 3484.14 413.47 3468.9 395.25 3456.95 393.7 3446.34 396.56 3455.28 417.3 3468.66 409.82 3484.14"/><polygon class="cls-15" points="306.24 3460.05 303.49 3447.22 309.98 3439.73 300.77 3445.28 306.24 3460.05"/><polygon class="cls-16" points="358.13 3441.41 372.58 3468.38 365.44 3498.98 374.79 3468.42 358.13 3441.41"/><polygon class="cls-16" points="309.98 3439.73 303.49 3447.22 306.24 3460.05 304.85 3446.7 309.98 3439.73"/><polygon class="cls-16" points="393.7 3446.34 395.25 3456.95 413.47 3468.9 409.82 3484.14 412.48 3469.51 393.89 3458.15 393.7 3446.34"/><polygon class="cls-14" points="64.67 3556.46 81.51 3495.34 170.09 3446.2 348.79 3589.49 349.45 3642.14 314.56 3691.6 105.47 3641.62 64.67 3556.46"/><polygon class="cls-17" points="81.51 3495.34 78.1 3545.07 240.8 3621.5 349.34 3633.28 348.79 3589.49 170.09 3446.2 81.51 3495.34"/><polygon class="cls-6" points="81.51 3495.34 73.56 3553.2 238.57 3631.3 349.45 3642.14 314.56 3691.6 105.47 3641.62 64.67 3556.46 81.51 3495.34"/><polygon class="cls-6" points="238.57 3631.3 105.47 3641.62 314.56 3691.6 349.45 3642.14 238.57 3631.3"/><polygon class="cls-15" points="105.32 3604.44 118.88 3567.53 141.74 3541.77 116.28 3563.01 105.32 3604.44"/><polygon class="cls-15" points="312.43 3659.18 318.92 3637.58 290.56 3594.81 287.85 3574.65 294.36 3594.34 326.89 3635.44 312.43 3659.18"/><polygon class="cls-16" points="105.32 3604.44 116.28 3563.01 141.74 3541.77 111.34 3560.68 105.32 3604.44"/><polygon class="cls-16" points="287.85 3574.65 294.36 3594.34 326.89 3635.44 312.43 3659.18 331.34 3636.58 296.26 3593.98 287.85 3574.65"/><polygon class="cls-17" points="81.51 3495.34 192.07 3493.85 296.79 3547.79 170.09 3446.2 81.51 3495.34"/></g></g></g></svg>